  0
SECTION
  2
HEADER
  9
$ACADVER
  1
AC1009
  9
$INSBASE
 10
0.0
 20
0.0
 30
0.0
  9
$EXTMIN
 10
654.4538311345807
 20
257.26464942850248
 30
-0.0015258207003583
  9
$EXTMAX
 10
677.57760927499589
 20
271.9931952424734
 30
0.0000000349246037
  9
$LIMMIN
 10
0.0
 20
0.0
  9
$LIMMAX
 10
420.0
 20
297.0
  9
$ORTHOMODE
 70
     1
  9
$REGENMODE
 70
     1
  9
$FILLMODE
 70
     1
  9
$QTEXTMODE
 70
     0
  9
$MIRRTEXT
 70
     0
  9
$DRAGMODE
 70
     2
  9
$LTSCALE
 40
1.0
  9
$OSMODE
 70
   959
  9
$ATTMODE
 70
     1
  9
$TEXTSIZE
 40
2.5
  9
$TRACEWID
 40
1.0
  9
$TEXTSTYLE
  7
STANDARD
  9
$CLAYER
  8
0
  9
$CELTYPE
  6
BYLAYER
  9
$CECOLOR
 62
   256
  9
$DIMSCALE
 40
1.0
  9
$DIMASZ
 40
2.5
  9
$DIMEXO
 40
0.625
  9
$DIMDLI
 40
3.75
  9
$DIMRND
 40
0.0
  9
$DIMDLE
 40
0.0
  9
$DIMEXE
 40
1.25
  9
$DIMTP
 40
0.0
  9
$DIMTM
 40
0.0
  9
$DIMTXT
 40
2.5
  9
$DIMCEN
 40
2.5
  9
$DIMTSZ
 40
0.0
  9
$DIMTOL
 70
     0
  9
$DIMLIM
 70
     0
  9
$DIMTIH
 70
     0
  9
$DIMTOH
 70
     0
  9
$DIMSE1
 70
     0
  9
$DIMSE2
 70
     0
  9
$DIMTAD
 70
     1
  9
$DIMZIN
 70
     8
  9
$DIMBLK
  1

  9
$DIMASO
 70
     1
  9
$DIMSHO
 70
     1
  9
$DIMPOST
  1

  9
$DIMAPOST
  1

  9
$DIMALT
 70
     0
  9
$DIMALTD
 70
     3
  9
$DIMALTF
 40
0.03937007874016
  9
$DIMLFAC
 40
1.0
  9
$DIMTOFL
 70
     1
  9
$DIMTVP
 40
0.0
  9
$DIMTIX
 70
     0
  9
$DIMSOXD
 70
     0
  9
$DIMSAH
 70
     0
  9
$DIMBLK1
  1

  9
$DIMBLK2
  1

  9
$DIMSTYLE
  2
ISO-25
  9
$DIMCLRD
 70
     0
  9
$DIMCLRE
 70
     0
  9
$DIMCLRT
 70
     0
  9
$DIMTFAC
 40
1.0
  9
$DIMGAP
 40
0.625
  9
$LUNITS
 70
     2
  9
$LUPREC
 70
     4
  9
$SKETCHINC
 40
1.0
  9
$FILLETRAD
 40
0.0
  9
$AUNITS
 70
     0
  9
$AUPREC
 70
     0
  9
$MENU
  1
.
  9
$ELEVATION
 40
0.0
  9
$PELEVATION
 40
0.0
  9
$THICKNESS
 40
0.0
  9
$LIMCHECK
 70
     0
  9
$BLIPMODE
 70
     0
  9
$CHAMFERA
 40
0.0
  9
$CHAMFERB
 40
0.0
  9
$SKPOLY
 70
     0
  9
$TDCREATE
 40
2457582.3733530212
  9
$TDUPDATE
 40
2457591.563801609
  9
$TDINDWG
 40
0.0811068519
  9
$TDUSRTIMER
 40
0.0811032407
  9
$USRTIMER
 70
     1
  9
$ANGBASE
 50
0.0
  9
$ANGDIR
 70
     0
  9
$PDMODE
 70
     0
  9
$PDSIZE
 40
0.0
  9
$PLINEWID
 40
0.0
  9
$COORDS
 70
     1
  9
$SPLFRAME
 70
     0
  9
$SPLINETYPE
 70
     6
  9
$SPLINESEGS
 70
     8
  9
$ATTDIA
 70
     1
  9
$ATTREQ
 70
     1
  9
$HANDLING
 70
     1
  9
$HANDSEED
  5
10CA
  9
$SURFTAB1
 70
     6
  9
$SURFTAB2
 70
     6
  9
$SURFTYPE
 70
     6
  9
$SURFU
 70
     6
  9
$SURFV
 70
     6
  9
$UCSNAME
  2

  9
$UCSORG
 10
661.89652046107585
 20
265.25656905713782
 30
0.0
  9
$UCSXDIR
 10
1.0
 20
0.0
 30
0.0
  9
$UCSYDIR
 10
0.0
 20
1.0
 30
0.0
  9
$PUCSNAME
  2

  9
$PUCSORG
 10
0.0
 20
0.0
 30
0.0
  9
$PUCSXDIR
 10
1.0
 20
0.0
 30
0.0
  9
$PUCSYDIR
 10
0.0
 20
1.0
 30
0.0
  9
$USERI1
 70
     0
  9
$USERI2
 70
     0
  9
$USERI3
 70
     0
  9
$USERI4
 70
     0
  9
$USERI5
 70
     0
  9
$USERR1
 40
0.0
  9
$USERR2
 40
0.0
  9
$USERR3
 40
0.0
  9
$USERR4
 40
0.0
  9
$USERR5
 40
2.5
  9
$WORLDVIEW
 70
     1
  9
$SHADEDGE
 70
     3
  9
$SHADEDIF
 70
    70
  9
$TILEMODE
 70
     1
  9
$MAXACTVP
 70
    64
  9
$PLIMCHECK
 70
     0
  9
$PEXTMIN
 10
0.0
 20
0.0
 30
0.0
  9
$PEXTMAX
 10
0.0
 20
0.0
 30
0.0
  9
$PLIMMIN
 10
0.0
 20
0.0
  9
$PLIMMAX
 10
12.0
 20
9.0
  9
$UNITMODE
 70
     0
  9
$VISRETAIN
 70
     1
  9
$PLINEGEN
 70
     0
  9
$PSLTSCALE
 70
     1
  0
ENDSEC
  0
SECTION
  2
TABLES
  0
TABLE
  2
VPORT
 70
     1
  0
VPORT
  2
*ACTIVE
 70
     0
 10
0.0
 20
0.0
 11
1.0
 21
1.0
 12
654.90897634063072
 22
266.22277675008547
 13
0.0
 23
0.0
 14
10.0
 24
10.0
 15
10.0
 25
10.0
 16
0.0
 26
0.0
 36
1.0
 17
0.0
 27
0.0
 37
0.0
 40
38.382630698357147
 41
2.2819875776397511
 42
50.0
 43
0.0
 44
0.0
 50
0.0
 51
0.0
 71
     0
 72
  1000
 73
     1
 74
     3
 75
     0
 76
     0
 77
     0
 78
     0
  0
ENDTAB
  0
TABLE
  2
LTYPE
 70
     3
  0
LTYPE
  2
CONTINUOUS
 70
     0
  3
Solid line
 72
    65
 73
     0
 40
0.0
  0
LTYPE
  2
CENTER
 70
     0
  3
__ . __
 72
    65
 73
     4
 40
7.0
 49
4.0
 49
-1.0
 49
1.0
 49
-1.0
  0
LTYPE
  2
EB_DASH
 70
     0
  3
__ __ __ __ __ __ __ __ __ __ __ __ __ __ __ __
 72
    65
 73
     2
 40
6.0
 49
3.0
 49
-3.0
  0
ENDTAB
  0
TABLE
  2
LAYER
 70
    13
  0
LAYER
  2
0
 70
     0
 62
     7
  6
CONTINUOUS
  0
LAYER
  2
DEFPOINTS
 70
     0
 62
     7
  6
CONTINUOUS
  0
LAYER
  2
图框文字2
 70
     0
 62
     3
  6
CONTINUOUS
  0
LAYER
  2
图框
 70
     0
 62
   150
  6
CONTINUOUS
  0
LAYER
  2
图框文字
 70
     0
 62
     1
  6
CONTINUOUS
  0
LAYER
  2
LD中心线
 70
     0
 62
     1
  6
CONTINUOUS
  0
LAYER
  2
LD剖面线
 70
     0
 62
     4
  6
CONTINUOUS
  0
LAYER
  2
LD实线
 70
     0
 62
     7
  6
CONTINUOUS
  0
LAYER
  2
标注
 70
     0
 62
     3
  6
CONTINUOUS
  0
LAYER
  2
MOLDBASE
 70
     0
 62
     7
  6
CONTINUOUS
  0
LAYER
  2
EBLAYER1
 70
     0
 62
     7
  6
CONTINUOUS
  0
LAYER
  2
PART
 70
     0
 62
     7
  6
CONTINUOUS
  0
LAYER
  2
虚线1
 70
     0
 62
     8
  6
EB_DASH
  0
ENDTAB
  0
TABLE
  2
STYLE
 70
     4
  0
STYLE
  2
STANDARD
 70
     0
 40
0.0
 41
1.0
 50
0.0
 71
     0
 42
2.5
  3
txt
  4
gbcbig.shx
  0
STYLE
  2
ANNOTATIVE
 70
     0
 40
0.0
 41
1.0
 50
0.0
 71
     0
 42
2.5
  3
txt.shx
  4
gbcbig.shx
  0
STYLE
  2
样式_1
 70
     0
 40
0.0
 41
1.0
 50
0.0
 71
     0
 42
2.5
  3
romanc.shx
  4
hztxt.shx
  0
STYLE
  2
工程字
 70
     0
 40
0.0
 41
1.0
 50
0.0
 71
     0
 42
3.5
  3
gbenor.shx
  4
gbcbig.shx
  0
ENDTAB
  0
TABLE
  2
VIEW
 70
     0
  0
ENDTAB
  0
TABLE
  2
UCS
 70
     0
  0
ENDTAB
  0
TABLE
  2
APPID
 70
    12
  0
APPID
  2
ACAD
 70
     0
  0
APPID
  2
ACAD_PSEXT
 70
     0
  0
APPID
  2
ACADANNOPO
 70
     0
  0
APPID
  2
ACADANNOTATIVE
 70
     0
  0
APPID
  2
ACAD_DSTYLE_DIMJAG
 70
     0
  0
APPID
  2
ACAD_DSTYLE_DIMTALN
 70
     0
  0
APPID
  2
ACAD_MLEADERVER
 70
     0
  0
APPID
  2
ACAECLAYERSTANDARD
 70
     0
  0
APPID
  2
ACAD_DSTYLE_DIMRADIAL_EXTENSION
 70
     0
  0
APPID
  2
ACADANNOMONITORALERTICONDI
 70
     0
  0
APPID
  2
ACAD_EXEMPT_FROM_CAD_STANDARDS
 70
     0
  0
APPID
  2
ACAD_NAV_VCDISPLAY
 70
     0
  0
ENDTAB
  0
TABLE
  2
DIMSTYLE
 70
     7
  0
DIMSTYLE
  2
ISO-25
 70
     0
  3

  4

  5

  6

  7

 40
1.0
 41
2.5
 42
0.625
 43
3.75
 44
1.25
 45
0.0
 46
0.0
 47
0.0
 48
0.0
140
2.5
141
2.5
142
0.0
143
0.03937007874016
144
1.0
145
0.0
146
1.0
147
0.625
 71
     0
 72
     0
 73
     0
 74
     0
 75
     0
 76
     0
 77
     1
 78
     8
170
     0
171
     3
172
     1
173
     0
174
     0
175
     0
176
     0
177
     0
178
     0
  0
DIMSTYLE
  2
ANNOTATIVE
 70
     0
  3

  4

  5

  6

  7

 40
0.0
 41
2.5
 42
0.625
 43
3.75
 44
1.25
 45
0.0
 46
0.0
 47
0.0
 48
0.0
140
2.5
141
2.5
142
0.0
143
0.03937007874016
144
1.0
145
0.0
146
1.0
147
0.625
 71
     0
 72
     0
 73
     0
 74
     0
 75
     0
 76
     0
 77
     1
 78
     8
170
     0
171
     3
172
     1
173
     0
174
     0
175
     0
176
     0
177
     0
178
     0
  0
DIMSTYLE
  2
Y1_5
 70
     0
  3

  4

  5

  6

  7

 40
1.0
 41
1.1999999999999991
 42
0.0
 43
3.75
 44
0.7
 45
0.0
 46
0.0
 47
0.0
 48
0.0
140
1.5
141
2.5
142
0.0
143
0.03937007874016
144
1.0
145
0.0
146
1.0
147
0.3
 71
     0
 72
     0
 73
     0
 74
     0
 75
     0
 76
     0
 77
     1
 78
     8
170
     0
171
     3
172
     1
173
     0
174
     0
175
     0
176
     3
177
     3
178
     3
  0
DIMSTYLE
  2
Y2
 70
     0
  3

  4

  5

  6

  7

 40
1.0
 41
1.5
 42
0.0
 43
3.75
 44
1.0
 45
0.0
 46
0.0
 47
0.0
 48
0.0
140
2.0
141
2.5
142
0.0
143
0.03937007874016
144
1.0
145
0.0
146
1.0
147
0.7
 71
     0
 72
     0
 73
     0
 74
     0
 75
     0
 76
     0
 77
     1
 78
     8
170
     0
171
     3
172
     1
173
     0
174
     0
175
     0
176
     3
177
     3
178
     3
  0
DIMSTYLE
  2
Y12-1
 70
     0
  3

  4

  5

  6

  7

 40
1.0
 41
1.1999999999999991
 42
0.0
 43
3.75
 44
0.8
 45
0.0
 46
0.0
 47
0.0
 48
0.0
140
1.0
141
2.5
142
0.0
143
0.03937007874016
144
2.0
145
0.0
146
1.0
147
0.3
 71
     0
 72
     0
 73
     0
 74
     0
 75
     0
 76
     0
 77
     1
 78
     8
170
     0
171
     3
172
     1
173
     0
174
     0
175
     0
176
     3
177
     3
178
     2
  0
DIMSTYLE
  2
Y12-1_5
 70
     0
  3

  4

  5

  6

  7

 40
1.0
 41
1.1999999999999991
 42
0.0
 43
3.75
 44
0.8
 45
0.0
 46
0.0
 47
0.0
 48
0.0
140
1.5
141
2.5
142
0.0
143
0.03937007874016
144
2.0
145
0.0
146
1.0
147
0.5
 71
     0
 72
     0
 73
     0
 74
     0
 75
     0
 76
     0
 77
     1
 78
     8
170
     0
171
     3
172
     1
173
     0
174
     0
175
     0
176
     3
177
     3
178
     2
  0
DIMSTYLE
  2
Y5
 70
     0
  3

  4

  5

  6

  7

 40
1.0
 41
4.0
 42
0.0
 43
3.75
 44
3.0
 45
0.0
 46
0.0
 47
0.0
 48
0.0
140
5.0
141
2.5
142
0.0
143
0.03937007874016
144
1.0
145
0.0
146
1.0
147
1.5
 71
     0
 72
     0
 73
     0
 74
     0
 75
     0
 76
     0
 77
     1
 78
     8
170
     0
171
     3
172
     1
173
     0
174
     0
175
     0
176
     3
177
     3
178
     3
  0
ENDTAB
  0
ENDSEC
  0
SECTION
  2
BLOCKS
  0
BLOCK
  8
0
  2
$MODEL_SPACE
 70
     0
 10
0.0
 20
0.0
 30
0.0
  3
$MODEL_SPACE
  1

  0
ENDBLK
  5
21
  8
0
  0
BLOCK
 67
     1
  8
0
  2
$PAPER_SPACE
 70
     0
 10
0.0
 20
0.0
 30
0.0
  3
$PAPER_SPACE
  1

  0
ENDBLK
  5
D5
 67
     1
  8
0
  0
BLOCK
  8
0
  2
*D1
 70
     1
 10
0.0
 20
0.0
 30
0.0
  3
*D1
  1

  0
LINE
  5
7D3
  8
0
 62
     3
 10
149.80100064096899
 20
152.89839432089909
 30
0.0
 11
149.80100064096899
 21
139.2567114347334
 31
0.0
  0
LINE
  5
7D4
  8
0
 62
     3
 10
157.60100064096881
 20
153.72051516130199
 30
0.0
 11
157.60100064096881
 21
139.2567114347334
 31
0.0
  0
LINE
  5
7D5
  8
0
 62
     3
 10
151.30100064096899
 20
140.2567114347334
 30
0.0
 11
156.10100064096881
 21
140.2567114347334
 31
0.0
  0
SOLID
  5
7D6
  8
0
 62
     3
 10
151.30100064096899
 20
140.5067114347334
 30
0.0
 11
151.30100064096899
 21
140.0067114347334
 31
0.0
 12
149.80100064096899
 22
140.2567114347334
 32
0.0
 13
149.80100064096899
 23
140.2567114347334
 33
0.0
  0
SOLID
  5
7D7
  8
0
 62
     3
 10
156.10100064096881
 20
140.5067114347334
 30
0.0
 11
156.10100064096881
 21
140.0067114347334
 31
0.0
 12
157.60100064096881
 22
140.2567114347334
 32
0.0
 13
157.60100064096881
 23
140.2567114347334
 33
0.0
  0
INSERT
  5
7D8
  8
0
  2
*U71
 10
0.0
 20
0.0
 30
0.0
  0
POINT
  5
7D9
  8
DEFPOINTS
 62
     0
 10
149.80100064096899
 20
152.89839432089909
 30
0.0
  0
POINT
  5
7DA
  8
DEFPOINTS
 62
     0
 10
157.60100064096881
 20
153.72051516130199
 30
0.0
  0
POINT
  5
7DB
  8
DEFPOINTS
 62
     0
 10
157.60100064096881
 20
140.2567114347334
 30
0.0
  0
ENDBLK
  5
75A
  8
0
  0
BLOCK
  8
0
  2
*D2
 70
     1
 10
0.0
 20
0.0
 30
0.0
  3
*D2
  1

  0
LINE
  5
800
  8
0
 62
     3
 10
235.10100064097969
 20
140.09010212002659
 30
0.0
 11
235.10100064097969
 21
137.24913414986889
 31
0.0
  0
LINE
  5
801
  8
0
 62
     3
 10
238.34100064094949
 20
155.25916780495211
 30
0.0
 11
238.34100064094949
 21
137.24913414986889
 31
0.0
  0
LINE
  5
802
  8
0
 62
     3
 10
239.84100064094949
 20
138.24913414986889
 30
0.0
 11
241.3410006409494
 21
138.24913414986889
 31
0.0
  0
LINE
  5
803
  8
0
 62
     3
 10
233.60100064097969
 20
138.24913414986889
 30
0.0
 11
223.93832253112919
 21
138.24913414986889
 31
0.0
  0
LINE
  5
804
  8
0
 62
     3
 10
238.34100064094949
 20
138.24913414986889
 30
0.0
 11
235.10100064097969
 21
138.24913414986889
 31
0.0
  0
SOLID
  5
805
  8
0
 62
     3
 10
239.84100064094949
 20
138.49913414986889
 30
0.0
 11
239.84100064094949
 21
137.99913414986889
 31
0.0
 12
238.34100064094949
 22
138.24913414986889
 32
0.0
 13
238.34100064094949
 23
138.24913414986889
 33
0.0
  0
SOLID
  5
806
  8
0
 62
     3
 10
233.60100064097969
 20
138.49913414986889
 30
0.0
 11
233.60100064097969
 21
137.99913414986889
 31
0.0
 12
235.10100064097969
 22
138.24913414986889
 32
0.0
 13
235.10100064097969
 23
138.24913414986889
 33
0.0
  0
INSERT
  5
807
  8
0
  2
*U74
 10
0.0
 20
0.0
 30
0.0
  0
POINT
  5
808
  8
DEFPOINTS
 62
     0
 10
235.10100064097969
 20
140.09010212002659
 30
0.0
  0
POINT
  5
809
  8
DEFPOINTS
 62
     0
 10
238.34100064094949
 20
155.25916780495211
 30
0.0
  0
POINT
  5
80A
  8
DEFPOINTS
 62
     0
 10
238.34100064094949
 20
138.24913414986889
 30
0.0
  0
ENDBLK
  5
766
  8
0
  0
BLOCK
  8
0
  2
*D3
 70
     1
 10
0.0
 20
0.0
 30
0.0
  3
*D3
  1

  0
LINE
  5
83E
  8
0
 62
     3
 10
321.4956636914398
 20
156.7466451535351
 30
0.0
 11
321.4956636914398
 21
117.9865658269682
 31
0.0
  0
LINE
  5
83F
  8
0
 62
     3
 10
149.80100064096899
 20
135.15344321068409
 30
0.0
 11
149.80100064096899
 21
117.9865658269682
 31
0.0
  0
LINE
  5
840
  8
0
 62
     3
 10
319.99566369143992
 20
118.9865658269682
 30
0.0
 11
151.30100064096899
 21
118.9865658269682
 31
0.0
  0
SOLID
  5
841
  8
0
 62
     3
 10
319.99566369143992
 20
119.2365658269682
 30
0.0
 11
319.99566369143992
 21
118.7365658269682
 31
0.0
 12
321.4956636914398
 22
118.9865658269682
 32
0.0
 13
321.4956636914398
 23
118.9865658269682
 33
0.0
  0
SOLID
  5
842
  8
0
 62
     3
 10
151.30100064096899
 20
119.2365658269682
 30
0.0
 11
151.30100064096899
 21
118.7365658269682
 31
0.0
 12
149.80100064096899
 22
118.9865658269682
 32
0.0
 13
149.80100064096899
 23
118.9865658269682
 33
0.0
  0
INSERT
  5
843
  8
0
  2
*U79
 10
0.0
 20
0.0
 30
0.0
  0
POINT
  5
844
  8
DEFPOINTS
 62
     0
 10
321.4956636914398
 20
156.7466451535351
 30
0.0
  0
POINT
  5
845
  8
DEFPOINTS
 62
     0
 10
149.80100064096899
 20
135.15344321068409
 30
0.0
  0
POINT
  5
846
  8
DEFPOINTS
 62
     0
 10
149.80100064096899
 20
118.9865658269682
 30
0.0
  0
ENDBLK
  5
774
  8
0
  0
BLOCK
  8
0
  2
*D4
 70
     1
 10
0.0
 20
0.0
 30
0.0
  3
*D4
  1

  0
LINE
  5
847
  8
0
 62
     3
 10
235.10100064097969
 20
151.8439942417271
 30
0.0
 11
228.92389789561821
 21
155.4103461745735
 31
0.0
  0
LINE
  5
848
  8
0
 62
     3
 10
235.1010006409802
 20
168.1814189995402
 30
0.0
 11
228.92389789561821
 21
171.74777093238691
 31
0.0
  0
LINE
  5
849
  8
0
 62
     3
 10
229.92389789561821
 20
156.33299590538391
 30
0.0
 11
229.92389789561821
 21
169.67042066319729
 31
0.0
  0
LINE
  5
84A
  8
0
 62
     3
 10
229.92389789561821
 20
171.17042066319729
 30
0.0
 11
229.92389789561821
 21
188.73708732986441
 31
0.0
  0
SOLID
  5
84B
  8
0
 62
     3
 10
229.67389789561821
 20
156.33299590538391
 30
0.0
 11
230.1738978956183
 21
156.33299590538391
 31
0.0
 12
229.92389789561821
 22
154.83299590538391
 32
0.0
 13
229.92389789561821
 23
154.83299590538391
 33
0.0
  0
SOLID
  5
84C
  8
0
 62
     3
 10
229.67389789561821
 20
169.67042066319729
 30
0.0
 11
230.1738978956183
 21
169.67042066319729
 31
0.0
 12
229.92389789561821
 22
171.17042066319729
 32
0.0
 13
229.92389789561821
 23
171.17042066319729
 33
0.0
  0
INSERT
  5
84D
  8
0
  2
*U80
 10
0.0
 20
0.0
 30
0.0
  0
POINT
  5
84E
  8
DEFPOINTS
 62
     0
 10
235.10100064097969
 20
151.8439942417271
 30
0.0
  0
POINT
  5
84F
  8
DEFPOINTS
 62
     0
 10
235.1010006409802
 20
168.1814189995402
 30
0.0
  0
POINT
  5
850
  8
DEFPOINTS
 62
     0
 10
229.92389789561821
 20
171.17042066319729
 30
0.0
  0
ENDBLK
  5
780
  8
0
  0
BLOCK
  8
0
  2
*D5
 70
     1
 10
0.0
 20
0.0
 30
0.0
  3
*D5
  1

  0
LINE
  5
851
  8
0
 62
     3
 10
363.02643093400178
 20
168.0283668155484
 30
0.0
 11
386.04745759406433
 21
168.0283668155484
 31
0.0
  0
LINE
  5
852
  8
0
 62
     3
 10
363.02643093400178
 20
151.98616344805009
 30
0.0
 11
386.04745759406433
 21
151.98616344805009
 31
0.0
  0
LINE
  5
853
  8
0
 62
     3
 10
385.04745759406433
 20
166.5283668155484
 30
0.0
 11
385.04745759406433
 21
153.48616344805009
 31
0.0
  0
SOLID
  5
854
  8
0
 62
     3
 10
384.79745759406433
 20
166.5283668155484
 30
0.0
 11
385.29745759406433
 21
166.5283668155484
 31
0.0
 12
385.04745759406433
 22
168.0283668155484
 32
0.0
 13
385.04745759406433
 23
168.0283668155484
 33
0.0
  0
SOLID
  5
855
  8
0
 62
     3
 10
384.79745759406433
 20
153.48616344805009
 30
0.0
 11
385.29745759406433
 21
153.48616344805009
 31
0.0
 12
385.04745759406433
 22
151.98616344805009
 32
0.0
 13
385.04745759406433
 23
151.98616344805009
 33
0.0
  0
INSERT
  5
856
  8
0
  2
*U81
 10
0.0
 20
0.0
 30
0.0
  0
POINT
  5
857
  8
DEFPOINTS
 62
     0
 10
363.02643093400178
 20
168.0283668155484
 30
0.0
  0
POINT
  5
858
  8
DEFPOINTS
 62
     0
 10
363.02643093400178
 20
151.98616344805009
 30
0.0
  0
POINT
  5
859
  8
DEFPOINTS
 62
     0
 10
385.04745759406433
 20
151.98616344805009
 30
0.0
  0
ENDBLK
  5
78D
  8
0
  0
BLOCK
  8
0
  2
*D6
 70
     1
 10
0.0
 20
0.0
 30
0.0
  3
*D6
  1

  0
LINE
  5
88A
  8
0
 62
     3
 10
307.21566369144062
 20
152.60176603000721
 30
0.0
 11
307.21566369144062
 21
139.42057153919859
 31
0.0
  0
LINE
  5
88B
  8
0
 62
     3
 10
321.4956636914398
 20
148.51813571412319
 30
0.0
 11
321.4956636914398
 21
139.42057153919859
 31
0.0
  0
LINE
  5
88C
  8
0
 62
     3
 10
308.71566369144062
 20
140.42057153919859
 30
0.0
 11
319.99566369143992
 21
140.42057153919859
 31
0.0
  0
SOLID
  5
88D
  8
0
 62
     3
 10
308.71566369144062
 20
140.67057153919859
 30
0.0
 11
308.71566369144062
 21
140.17057153919859
 31
0.0
 12
307.21566369144062
 22
140.42057153919859
 32
0.0
 13
307.21566369144062
 23
140.42057153919859
 33
0.0
  0
SOLID
  5
88E
  8
0
 62
     3
 10
319.99566369143992
 20
140.67057153919859
 30
0.0
 11
319.99566369143992
 21
140.17057153919859
 31
0.0
 12
321.4956636914398
 22
140.42057153919859
 32
0.0
 13
321.4956636914398
 23
140.42057153919859
 33
0.0
  0
INSERT
  5
88F
  8
0
  2
*U83
 10
0.0
 20
0.0
 30
0.0
  0
POINT
  5
890
  8
DEFPOINTS
 62
     0
 10
307.21566369144062
 20
152.60176603000721
 30
0.0
  0
POINT
  5
891
  8
DEFPOINTS
 62
     0
 10
321.4956636914398
 20
148.51813571412319
 30
0.0
  0
POINT
  5
892
  8
DEFPOINTS
 62
     0
 10
321.4956636914398
 20
140.42057153919859
 30
0.0
  0
ENDBLK
  5
799
  8
0
  0
BLOCK
  8
0
  2
*D7
 70
     1
 10
0.0
 20
0.0
 30
0.0
  3
*D7
  1

  0
LINE
  5
8C5
  8
0
 62
     3
 10
363.02643093400178
 20
153.59616344804999
 30
0.0
 11
349.61213665109148
 21
153.59616344804999
 31
0.0
  0
LINE
  5
8C6
  8
0
 62
     3
 10
363.02643093400178
 20
166.4183668155483
 30
0.0
 11
349.61213665109148
 21
166.4183668155483
 31
0.0
  0
LINE
  5
8C7
  8
0
 62
     3
 10
350.61213665109148
 20
155.09616344804999
 30
0.0
 11
350.61213665109148
 21
164.9183668155483
 31
0.0
  0
SOLID
  5
8C8
  8
0
 62
     3
 10
350.36213665109148
 20
155.09616344804999
 30
0.0
 11
350.86213665109159
 21
155.09616344804999
 31
0.0
 12
350.61213665109148
 22
153.59616344804999
 32
0.0
 13
350.61213665109148
 23
153.59616344804999
 33
0.0
  0
SOLID
  5
8C9
  8
0
 62
     3
 10
350.36213665109148
 20
164.9183668155483
 30
0.0
 11
350.86213665109159
 21
164.9183668155483
 31
0.0
 12
350.61213665109148
 22
166.4183668155483
 32
0.0
 13
350.61213665109148
 23
166.4183668155483
 33
0.0
  0
INSERT
  5
8CA
  8
0
  2
*U87
 10
0.0
 20
0.0
 30
0.0
  0
POINT
  5
8CB
  8
DEFPOINTS
 62
     0
 10
363.02643093400178
 20
153.59616344804999
 30
0.0
  0
POINT
  5
8CC
  8
DEFPOINTS
 62
     0
 10
363.02643093400178
 20
166.4183668155483
 30
0.0
  0
POINT
  5
8CD
  8
DEFPOINTS
 62
     0
 10
350.61213665109148
 20
166.4183668155483
 30
0.0
  0
ENDBLK
  5
7A5
  8
0
  0
BLOCK
  8
0
  2
*D8
 70
     1
 10
0.0
 20
0.0
 30
0.0
  3
*D8
  1

  0
LINE
  5
8CE
  8
0
 62
     3
 10
321.4956636914394
 20
166.41744072812591
 30
0.0
 11
335.46345267418201
 21
166.41744072812591
 31
0.0
  0
LINE
  5
8CF
  8
0
 62
     3
 10
321.4956636914398
 20
153.6008407281262
 30
0.0
 11
335.46345267418201
 21
153.6008407281262
 31
0.0
  0
LINE
  5
8D0
  8
0
 62
     3
 10
334.46345267418201
 20
164.91744072812591
 30
0.0
 11
334.46345267418201
 21
155.10084072812609
 31
0.0
  0
SOLID
  5
8D1
  8
0
 62
     3
 10
334.21345267418201
 20
164.91744072812591
 30
0.0
 11
334.71345267418201
 21
164.91744072812591
 31
0.0
 12
334.46345267418201
 22
166.41744072812591
 32
0.0
 13
334.46345267418201
 23
166.41744072812591
 33
0.0
  0
SOLID
  5
8D2
  8
0
 62
     3
 10
334.21345267418201
 20
155.10084072812609
 30
0.0
 11
334.71345267418201
 21
155.10084072812609
 31
0.0
 12
334.46345267418201
 22
153.6008407281262
 32
0.0
 13
334.46345267418201
 23
153.6008407281262
 33
0.0
  0
INSERT
  5
8D3
  8
0
  2
*U88
 10
0.0
 20
0.0
 30
0.0
  0
POINT
  5
8D4
  8
DEFPOINTS
 62
     0
 10
321.4956636914394
 20
166.41744072812591
 30
0.0
  0
POINT
  5
8D5
  8
DEFPOINTS
 62
     0
 10
321.4956636914398
 20
153.6008407281262
 30
0.0
  0
POINT
  5
8D6
  8
DEFPOINTS
 62
     0
 10
334.46345267418201
 20
153.6008407281262
 30
0.0
  0
ENDBLK
  5
7B1
  8
0
  0
BLOCK
  8
0
  2
*D9
 70
     1
 10
0.0
 20
0.0
 30
0.0
  3
*D9
  1

  0
LINE
  5
923
  8
0
 62
     3
 10
224.982513984105
 20
151.13644072812619
 30
0.0
 11
224.982513984105
 21
147.69662612972499
 31
0.0
  0
LINE
  5
924
  8
0
 62
     3
 10
235.10100064097969
 20
150.1140668723387
 30
0.0
 11
235.10100064097969
 21
147.69662612972499
 31
0.0
  0
LINE
  5
925
  8
0
 62
     3
 10
226.18251398410499
 20
148.39662612972501
 30
0.0
 11
233.9010006409797
 21
148.39662612972501
 31
0.0
  0
SOLID
  5
926
  8
0
 62
     3
 10
226.18251398410499
 20
148.596626129725
 30
0.0
 11
226.18251398410499
 21
148.1966261297251
 31
0.0
 12
224.982513984105
 22
148.39662612972501
 32
0.0
 13
224.982513984105
 23
148.39662612972501
 33
0.0
  0
SOLID
  5
927
  8
0
 62
     3
 10
233.9010006409797
 20
148.596626129725
 30
0.0
 11
233.9010006409797
 21
148.1966261297251
 31
0.0
 12
235.10100064097969
 22
148.39662612972501
 32
0.0
 13
235.10100064097969
 23
148.39662612972501
 33
0.0
  0
INSERT
  5
928
  8
0
  2
*U95
 10
0.0
 20
0.0
 30
0.0
  0
POINT
  5
929
  8
DEFPOINTS
 62
     0
 10
224.982513984105
 20
151.13644072812619
 30
0.0
  0
POINT
  5
92A
  8
DEFPOINTS
 62
     0
 10
235.10100064097969
 20
150.1140668723387
 30
0.0
  0
POINT
  5
92B
  8
DEFPOINTS
 62
     0
 10
235.10100064097969
 20
148.39662612972501
 30
0.0
  0
ENDBLK
  5
7BD
  8
0
  0
BLOCK
  8
0
  2
*D10
 70
     1
 10
0.0
 20
0.0
 30
0.0
  3
*D10
  1

  0
LINE
  5
7CA
  8
0
 62
     3
 10
149.80100064096899
 20
160.63644072812531
 30
0.0
 11
149.80100064096899
 21
109.001266916829
 31
0.0
  0
LINE
  5
7CB
  8
0
 62
     3
 10
327.4956636914398
 20
155.56194422152879
 30
0.0
 11
327.4956636914398
 21
109.001266916829
 31
0.0
  0
LINE
  5
7CC
  8
0
 62
     3
 10
151.30100064096899
 20
110.001266916829
 30
0.0
 11
325.99566369143992
 21
110.001266916829
 31
0.0
  0
SOLID
  5
7CD
  8
0
 62
     3
 10
151.30100064096899
 20
110.2512669168291
 30
0.0
 11
151.30100064096899
 21
109.7512669168291
 31
0.0
 12
149.80100064096899
 22
110.001266916829
 32
0.0
 13
149.80100064096899
 23
110.001266916829
 33
0.0
  0
SOLID
  5
7CE
  8
0
 62
     3
 10
325.99566369143992
 20
110.2512669168291
 30
0.0
 11
325.99566369143992
 21
109.7512669168291
 31
0.0
 12
327.4956636914398
 22
110.001266916829
 32
0.0
 13
327.4956636914398
 23
110.001266916829
 33
0.0
  0
INSERT
  5
7CF
  8
0
  2
*U70
 10
0.0
 20
0.0
 30
0.0
  0
POINT
  5
7D0
  8
DEFPOINTS
 62
     0
 10
149.80100064096899
 20
160.63644072812531
 30
0.0
  0
POINT
  5
7D1
  8
DEFPOINTS
 62
     0
 10
327.4956636914398
 20
155.56194422152879
 30
0.0
  0
POINT
  5
7D2
  8
DEFPOINTS
 62
     0
 10
327.4956636914398
 20
110.001266916829
 30
0.0
  0
ENDBLK
  5
7C9
  8
0
  0
BLOCK
  8
0
  2
*D11
 70
     1
 10
0.0
 20
0.0
 30
0.0
  3
*D11
  1

  0
LINE
  5
7DF
  8
0
 62
     3
 10
153.70100064096911
 20
172.13644072812619
 30
0.0
 11
132.19916369284141
 21
172.13644072812619
 31
0.0
  0
LINE
  5
7E0
  8
0
 62
     3
 10
155.48738436933311
 20
149.13644072812599
 30
0.0
 11
132.19916369284141
 21
149.13644072812599
 31
0.0
  0
LINE
  5
7E1
  8
0
 62
     3
 10
133.19916369284141
 20
170.6364407281261
 30
0.0
 11
133.19916369284141
 21
150.63644072812599
 31
0.0
  0
SOLID
  5
7E2
  8
0
 62
     3
 10
132.94916369284141
 20
170.6364407281261
 30
0.0
 11
133.44916369284141
 21
170.6364407281261
 31
0.0
 12
133.19916369284141
 22
172.13644072812619
 32
0.0
 13
133.19916369284141
 23
172.13644072812619
 33
0.0
  0
SOLID
  5
7E3
  8
0
 62
     3
 10
132.94916369284141
 20
150.63644072812599
 30
0.0
 11
133.44916369284141
 21
150.63644072812599
 31
0.0
 12
133.19916369284141
 22
149.13644072812599
 32
0.0
 13
133.19916369284141
 23
149.13644072812599
 33
0.0
  0
INSERT
  5
7E4
  8
0
  2
*U72
 10
0.0
 20
0.0
 30
0.0
  0
POINT
  5
7E5
  8
DEFPOINTS
 62
     0
 10
153.70100064096911
 20
172.13644072812619
 30
0.0
  0
POINT
  5
7E6
  8
DEFPOINTS
 62
     0
 10
155.48738436933311
 20
149.13644072812599
 30
0.0
  0
POINT
  5
7E7
  8
DEFPOINTS
 62
     0
 10
133.19916369284141
 20
149.13644072812599
 30
0.0
  0
ENDBLK
  5
7DE
  8
0
  0
BLOCK
  8
0
  2
*D12
 70
     1
 10
0.0
 20
0.0
 30
0.0
  3
*D12
  1

  0
LINE
  5
9AA
  8
0
 62
     3
 10
180.30295086228031
 20
151.1364407281259
 30
0.0
 11
187.70334428783639
 21
151.1364407281259
 31
0.0
  0
LINE
  5
9AB
  8
0
 62
     3
 10
180.3029508622808
 20
170.13644072812531
 30
0.0
 11
187.70334428783639
 21
170.13644072812531
 31
0.0
  0
LINE
  5
9AC
  8
0
 62
     3
 10
186.70334428783639
 20
152.6364407281259
 30
0.0
 11
186.70334428783639
 21
168.63644072812531
 31
0.0
  0
SOLID
  5
9AD
  8
0
 62
     3
 10
186.45334428783639
 20
152.6364407281259
 30
0.0
 11
186.95334428783639
 21
152.6364407281259
 31
0.0
 12
186.70334428783639
 22
151.1364407281259
 32
0.0
 13
186.70334428783639
 23
151.1364407281259
 33
0.0
  0
SOLID
  5
9AE
  8
0
 62
     3
 10
186.45334428783639
 20
168.63644072812531
 30
0.0
 11
186.95334428783639
 21
168.63644072812531
 31
0.0
 12
186.70334428783639
 22
170.13644072812531
 32
0.0
 13
186.70334428783639
 23
170.13644072812531
 33
0.0
  0
INSERT
  5
9AF
  8
0
  2
*U104
 10
0.0
 20
0.0
 30
0.0
  0
POINT
  5
9B0
  8
DEFPOINTS
 62
     0
 10
180.30295086228031
 20
151.1364407281259
 30
0.0
  0
POINT
  5
9B1
  8
DEFPOINTS
 62
     0
 10
180.3029508622808
 20
170.13644072812531
 30
0.0
  0
POINT
  5
9B2
  8
DEFPOINTS
 62
     0
 10
186.70334428783639
 20
170.13644072812531
 30
0.0
  0
ENDBLK
  5
7EA
  8
0
  0
BLOCK
  8
0
  2
*D13
 70
     1
 10
0.0
 20
0.0
 30
0.0
  3
*D13
  1

  0
LINE
  5
7F7
  8
0
 62
     3
 10
149.80100064096899
 20
140.77967573026811
 30
0.0
 11
149.80100064096899
 21
133.25387534502491
 31
0.0
  0
LINE
  5
7F8
  8
0
 62
     3
 10
235.10100064097969
 20
153.68264452411361
 30
0.0
 11
235.10100064097969
 21
133.25387534502491
 31
0.0
  0
LINE
  5
7F9
  8
0
 62
     3
 10
151.30100064096899
 20
134.25387534502491
 30
0.0
 11
233.60100064097969
 21
134.25387534502491
 31
0.0
  0
SOLID
  5
7FA
  8
0
 62
     3
 10
151.30100064096899
 20
134.50387534502491
 30
0.0
 11
151.30100064096899
 21
134.00387534502491
 31
0.0
 12
149.80100064096899
 22
134.25387534502491
 32
0.0
 13
149.80100064096899
 23
134.25387534502491
 33
0.0
  0
SOLID
  5
7FB
  8
0
 62
     3
 10
233.60100064097969
 20
134.50387534502491
 30
0.0
 11
233.60100064097969
 21
134.00387534502491
 31
0.0
 12
235.10100064097969
 22
134.25387534502491
 32
0.0
 13
235.10100064097969
 23
134.25387534502491
 33
0.0
  0
INSERT
  5
7FC
  8
0
  2
*U73
 10
0.0
 20
0.0
 30
0.0
  0
POINT
  5
7FD
  8
DEFPOINTS
 62
     0
 10
149.80100064096899
 20
140.77967573026811
 30
0.0
  0
POINT
  5
7FE
  8
DEFPOINTS
 62
     0
 10
235.10100064097969
 20
153.68264452411361
 30
0.0
  0
POINT
  5
7FF
  8
DEFPOINTS
 62
     0
 10
235.10100064097969
 20
134.25387534502491
 30
0.0
  0
ENDBLK
  5
7F6
  8
0
  0
BLOCK
  8
0
  2
*D14
 70
     1
 10
0.0
 20
0.0
 30
0.0
  3
*D14
  1

  0
LINE
  5
80E
  8
0
 62
     3
 10
224.982513984105
 20
151.13644072812619
 30
0.0
 11
216.25175236125261
 21
150.5259264020078
 31
0.0
  0
ARC
  5
80F
  8
0
 62
     3
 10
351.9190301193895
 20
160.01270662059119
 30
0.0
 40
134.9985634233654
 50
176.63662982184971
 51
183.3633701781088
  0
SOLID
  5
810
  8
0
 62
     3
 10
216.9035123890489
 20
167.9488794013723
 30
0.0
 11
217.4024804867467
 21
167.9167727434984
 31
0.0
 12
217.24931641151929
 22
169.4297303655288
 32
0.0
 13
217.24931641151929
 23
169.4297303655288
 33
0.0
  0
SOLID
  5
811
  8
0
 62
     3
 10
217.40248048674101
 20
152.10864049778149
 30
0.0
 11
216.9035123890431
 21
152.076533839908
 31
0.0
 12
217.2493164115125
 22
150.59568287575109
 32
0.0
 13
217.2493164115125
 23
150.59568287575109
 33
0.0
  0
INSERT
  5
812
  8
0
  2
*U75
 10
0.0
 20
0.0
 30
0.0
  0
POINT
  5
813
  8
DEFPOINTS
 62
     0
 10
216.9570187478316
 20
163.15398230348271
 30
0.0
  0
POINT
  5
814
  8
DEFPOINTS
 62
     0
 10
224.982513984105
 20
151.13644072812619
 30
0.0
  0
POINT
  5
815
  8
DEFPOINTS
 62
     0
 10
207.14288737587461
 20
170.1364407281248
 30
0.0
  0
POINT
  5
816
  8
DEFPOINTS
 62
     0
 10
235.1010006409802
 20
168.1814189995402
 30
0.0
  0
POINT
  5
817
  8
DEFPOINTS
 62
     0
 10
235.1010006409802
 20
151.8439942417271
 30
0.0
  0
ENDBLK
  5
80D
  8
0
  0
BLOCK
  8
0
  2
*D15
 70
     1
 10
0.0
 20
0.0
 30
0.0
  3
*D15
  1

  0
LINE
  5
81B
  8
0
 62
     3
 10
245.3211594679415
 20
167.57341899954011
 30
0.0
 11
255.01297414393781
 21
167.57341899954011
 31
0.0
  0
LINE
  5
81C
  8
0
 62
     3
 10
251.40890208797049
 20
152.4519942417281
 30
0.0
 11
255.01297414393781
 21
152.4519942417281
 31
0.0
  0
LINE
  5
81D
  8
0
 62
     3
 10
254.01297414393781
 20
153.9519942417281
 30
0.0
 11
254.01297414393781
 21
166.07341899954011
 31
0.0
  0
LINE
  5
81E
  8
0
 62
     3
 10
254.01297414393781
 20
167.57341899954011
 30
0.0
 11
254.01297414393781
 21
184.8567523328739
 31
0.0
  0
SOLID
  5
81F
  8
0
 62
     3
 10
253.76297414393781
 20
153.9519942417281
 30
0.0
 11
254.26297414393781
 21
153.9519942417281
 31
0.0
 12
254.01297414393781
 22
152.4519942417281
 32
0.0
 13
254.01297414393781
 23
152.4519942417281
 33
0.0
  0
SOLID
  5
820
  8
0
 62
     3
 10
253.76297414393781
 20
166.07341899954011
 30
0.0
 11
254.26297414393781
 21
166.07341899954011
 31
0.0
 12
254.01297414393781
 22
167.57341899954011
 32
0.0
 13
254.01297414393781
 23
167.57341899954011
 33
0.0
  0
INSERT
  5
821
  8
0
  2
*U76
 10
0.0
 20
0.0
 30
0.0
  0
POINT
  5
822
  8
DEFPOINTS
 62
     0
 10
245.3211594679415
 20
167.57341899954011
 30
0.0
  0
POINT
  5
823
  8
DEFPOINTS
 62
     0
 10
251.40890208797049
 20
152.4519942417281
 30
0.0
  0
POINT
  5
824
  8
DEFPOINTS
 62
     0
 10
254.01297414393781
 20
152.4519942417281
 30
0.0
  0
ENDBLK
  5
81A
  8
0
  0
BLOCK
  8
0
  2
*D16
 70
     1
 10
0.0
 20
0.0
 30
0.0
  3
*D16
  1

  0
LINE
  5
828
  8
0
 62
     3
 10
236.72100064096551
 20
151.99399424172719
 30
0.0
 11
237.721000640966
 21
151.99399424172719
 31
0.0
  0
LINE
  5
829
  8
0
 62
     3
 10
236.72100064096369
 20
168.03141899954011
 30
0.0
 11
237.721000640966
 21
168.03141899954011
 31
0.0
  0
LINE
  5
82A
  8
0
 62
     3
 10
236.721000640966
 20
153.49399424172719
 30
0.0
 11
236.721000640966
 21
166.53141899954011
 31
0.0
  0
LINE
  5
82B
  8
0
 62
     3
 10
236.721000640966
 20
168.03141899954011
 30
0.0
 11
236.721000640966
 21
185.26475233287391
 31
0.0
  0
SOLID
  5
82C
  8
0
 62
     3
 10
236.471000640966
 20
153.49399424172719
 30
0.0
 11
236.971000640966
 21
153.49399424172719
 31
0.0
 12
236.721000640966
 22
151.99399424172719
 32
0.0
 13
236.721000640966
 23
151.99399424172719
 33
0.0
  0
SOLID
  5
82D
  8
0
 62
     3
 10
236.471000640966
 20
166.53141899954011
 30
0.0
 11
236.971000640966
 21
166.53141899954011
 31
0.0
 12
236.721000640966
 22
168.03141899954011
 32
0.0
 13
236.721000640966
 23
168.03141899954011
 33
0.0
  0
INSERT
  5
82E
  8
0
  2
*U77
 10
0.0
 20
0.0
 30
0.0
  0
POINT
  5
82F
  8
DEFPOINTS
 62
     0
 10
236.72100064096551
 20
151.99399424172719
 30
0.0
  0
POINT
  5
830
  8
DEFPOINTS
 62
     0
 10
236.72100064096369
 20
168.03141899954011
 30
0.0
  0
POINT
  5
831
  8
DEFPOINTS
 62
     0
 10
236.721000640966
 20
168.03141899954011
 30
0.0
  0
ENDBLK
  5
827
  8
0
  0
BLOCK
  8
0
  2
*D17
 70
     1
 10
0.0
 20
0.0
 30
0.0
  3
*D17
  1

  0
LINE
  5
835
  8
0
 62
     3
 10
321.4956636914394
 20
167.36836681554809
 30
0.0
 11
340.19584235127599
 21
167.36836681554809
 31
0.0
  0
LINE
  5
836
  8
0
 62
     3
 10
321.4956636914394
 20
152.64616344804989
 30
0.0
 11
340.19584235127599
 21
152.64616344804989
 31
0.0
  0
LINE
  5
837
  8
0
 62
     3
 10
339.1958423512761
 20
165.86836681554809
 30
0.0
 11
339.1958423512761
 21
154.14616344804989
 31
0.0
  0
SOLID
  5
838
  8
0
 62
     3
 10
338.94584235127599
 20
165.86836681554809
 30
0.0
 11
339.4458423512761
 21
165.86836681554809
 31
0.0
 12
339.1958423512761
 22
167.36836681554809
 32
0.0
 13
339.1958423512761
 23
167.36836681554809
 33
0.0
  0
SOLID
  5
839
  8
0
 62
     3
 10
338.94584235127599
 20
154.14616344804989
 30
0.0
 11
339.4458423512761
 21
154.14616344804989
 31
0.0
 12
339.1958423512761
 22
152.64616344804989
 32
0.0
 13
339.1958423512761
 23
152.64616344804989
 33
0.0
  0
INSERT
  5
83A
  8
0
  2
*U78
 10
0.0
 20
0.0
 30
0.0
  0
POINT
  5
83B
  8
DEFPOINTS
 62
     0
 10
321.4956636914394
 20
167.36836681554809
 30
0.0
  0
POINT
  5
83C
  8
DEFPOINTS
 62
     0
 10
321.4956636914394
 20
152.64616344804989
 30
0.0
  0
POINT
  5
83D
  8
DEFPOINTS
 62
     0
 10
339.1958423512761
 20
152.64616344804989
 30
0.0
  0
ENDBLK
  5
834
  8
0
  0
BLOCK
  8
0
  2
*D18
 70
     1
 10
0.0
 20
0.0
 30
0.0
  3
*D18
  1

  0
LINE
  5
85D
  8
0
 62
     3
 10
357.91273970156919
 20
160.63644072812619
 30
0.0
 11
346.38120610425091
 21
160.63644072812619
 31
0.0
  0
LINE
  5
85E
  8
0
 62
     3
 10
358.62320819211669
 20
150.6364407281263
 30
0.0
 11
346.38120610425091
 21
150.6364407281263
 31
0.0
  0
LINE
  5
85F
  8
0
 62
     3
 10
347.38120610425079
 20
159.13644072812619
 30
0.0
 11
347.38120610425079
 21
152.1364407281263
 31
0.0
  0
SOLID
  5
860
  8
0
 62
     3
 10
347.13120610425091
 20
159.13644072812619
 30
0.0
 11
347.63120610425079
 21
159.13644072812619
 31
0.0
 12
347.38120610425079
 22
160.63644072812619
 32
0.0
 13
347.38120610425079
 23
160.63644072812619
 33
0.0
  0
SOLID
  5
861
  8
0
 62
     3
 10
347.13120610425091
 20
152.1364407281263
 30
0.0
 11
347.63120610425079
 21
152.1364407281263
 31
0.0
 12
347.38120610425079
 22
150.6364407281263
 32
0.0
 13
347.38120610425079
 23
150.6364407281263
 33
0.0
  0
INSERT
  5
862
  8
0
  2
*U82
 10
0.0
 20
0.0
 30
0.0
  0
POINT
  5
863
  8
DEFPOINTS
 62
     0
 10
357.91273970156919
 20
160.63644072812619
 30
0.0
  0
POINT
  5
864
  8
DEFPOINTS
 62
     0
 10
358.62320819211669
 20
150.6364407281263
 30
0.0
  0
POINT
  5
865
  8
DEFPOINTS
 62
     0
 10
347.38120610425079
 20
150.6364407281263
 30
0.0
  0
ENDBLK
  5
85C
  8
0
  0
BLOCK
  8
0
  2
*D19
 70
     1
 10
0.0
 20
0.0
 30
0.0
  3
*D19
  1

  0
LINE
  5
9C5
  8
0
 62
     3
 10
363.02643093400138
 20
168.1783668155484
 30
0.0
 11
389.42879801489471
 21
168.1783668155484
 31
0.0
  0
LINE
  5
9C6
  8
0
 62
     3
 10
363.02643093400178
 20
151.83616344805009
 30
0.0
 11
389.42879801489471
 21
151.83616344805009
 31
0.0
  0
LINE
  5
9C7
  8
0
 62
     3
 10
388.42879801489471
 20
166.6783668155484
 30
0.0
 11
388.42879801489471
 21
153.33616344805009
 31
0.0
  0
SOLID
  5
9C8
  8
0
 62
     3
 10
388.17879801489471
 20
166.6783668155484
 30
0.0
 11
388.67879801489471
 21
166.6783668155484
 31
0.0
 12
388.42879801489471
 22
168.1783668155484
 32
0.0
 13
388.42879801489471
 23
168.1783668155484
 33
0.0
  0
SOLID
  5
9C9
  8
0
 62
     3
 10
388.17879801489471
 20
153.33616344805009
 30
0.0
 11
388.67879801489471
 21
153.33616344805009
 31
0.0
 12
388.42879801489471
 22
151.83616344805009
 32
0.0
 13
388.42879801489471
 23
151.83616344805009
 33
0.0
  0
INSERT
  5
9CA
  8
0
  2
*U107
 10
0.0
 20
0.0
 30
0.0
  0
POINT
  5
9CB
  8
DEFPOINTS
 62
     0
 10
363.02643093400138
 20
168.1783668155484
 30
0.0
  0
POINT
  5
9CC
  8
DEFPOINTS
 62
     0
 10
363.02643093400178
 20
151.83616344805009
 30
0.0
  0
POINT
  5
9CD
  8
DEFPOINTS
 62
     0
 10
388.42879801489471
 20
151.83616344805009
 30
0.0
  0
ENDBLK
  5
868
  8
0
  0
BLOCK
  8
0
  2
*D20
 70
     1
 10
0.0
 20
0.0
 30
0.0
  3
*D20
  1

  0
LINE
  5
9BC
  8
0
 62
     3
 10
363.02643093400178
 20
167.6183668155484
 30
0.0
 11
382.49533094284192
 21
167.6183668155484
 31
0.0
  0
LINE
  5
9BD
  8
0
 62
     3
 10
363.02643093400178
 20
152.39616344805009
 30
0.0
 11
382.49533094284192
 21
152.39616344805009
 31
0.0
  0
LINE
  5
9BE
  8
0
 62
     3
 10
381.49533094284197
 20
166.1183668155484
 30
0.0
 11
381.49533094284197
 21
153.89616344805009
 31
0.0
  0
SOLID
  5
9BF
  8
0
 62
     3
 10
381.24533094284197
 20
166.1183668155484
 30
0.0
 11
381.74533094284197
 21
166.1183668155484
 31
0.0
 12
381.49533094284197
 22
167.6183668155484
 32
0.0
 13
381.49533094284197
 23
167.6183668155484
 33
0.0
  0
SOLID
  5
9C0
  8
0
 62
     3
 10
381.24533094284197
 20
153.89616344805009
 30
0.0
 11
381.74533094284197
 21
153.89616344805009
 31
0.0
 12
381.49533094284197
 22
152.39616344805009
 32
0.0
 13
381.49533094284197
 23
152.39616344805009
 33
0.0
  0
INSERT
  5
9C1
  8
0
  2
*U106
 10
0.0
 20
0.0
 30
0.0
  0
POINT
  5
9C2
  8
DEFPOINTS
 62
     0
 10
363.02643093400178
 20
167.6183668155484
 30
0.0
  0
POINT
  5
9C3
  8
DEFPOINTS
 62
     0
 10
363.02643093400178
 20
152.39616344805009
 30
0.0
  0
POINT
  5
9C4
  8
DEFPOINTS
 62
     0
 10
381.49533094284197
 20
152.39616344805009
 30
0.0
  0
ENDBLK
  5
874
  8
0
  0
BLOCK
  8
0
  2
*D21
 70
     1
 10
0.0
 20
0.0
 30
0.0
  3
*D21
  1

  0
LINE
  5
9B3
  8
0
 62
     3
 10
363.02643093400178
 20
167.3683668155484
 30
0.0
 11
378.66689053722803
 21
167.3683668155484
 31
0.0
  0
LINE
  5
9B4
  8
0
 62
     3
 10
363.02643093400178
 20
152.64616344805009
 30
0.0
 11
378.66689053722803
 21
152.64616344805009
 31
0.0
  0
LINE
  5
9B5
  8
0
 62
     3
 10
377.66689053722803
 20
165.8683668155484
 30
0.0
 11
377.66689053722803
 21
154.14616344805009
 31
0.0
  0
SOLID
  5
9B6
  8
0
 62
     3
 10
377.41689053722803
 20
165.8683668155484
 30
0.0
 11
377.91689053722808
 21
165.8683668155484
 31
0.0
 12
377.66689053722803
 22
167.3683668155484
 32
0.0
 13
377.66689053722803
 23
167.3683668155484
 33
0.0
  0
SOLID
  5
9B7
  8
0
 62
     3
 10
377.41689053722803
 20
154.14616344805009
 30
0.0
 11
377.91689053722808
 21
154.14616344805009
 31
0.0
 12
377.66689053722803
 22
152.64616344805009
 32
0.0
 13
377.66689053722803
 23
152.64616344805009
 33
0.0
  0
INSERT
  5
9B8
  8
0
  2
*U105
 10
0.0
 20
0.0
 30
0.0
  0
POINT
  5
9B9
  8
DEFPOINTS
 62
     0
 10
363.02643093400178
 20
167.3683668155484
 30
0.0
  0
POINT
  5
9BA
  8
DEFPOINTS
 62
     0
 10
363.02643093400178
 20
152.64616344805009
 30
0.0
  0
POINT
  5
9BB
  8
DEFPOINTS
 62
     0
 10
377.66689053722803
 20
152.64616344805009
 30
0.0
  0
ENDBLK
  5
880
  8
0
  0
BLOCK
  8
0
  2
*D22
 70
     1
 10
0.0
 20
0.0
 30
0.0
  3
*D22
  1

  0
LINE
  5
9A1
  8
0
 62
     3
 10
151.69207984439299
 20
163.63644072812531
 30
0.0
 11
145.7423497343751
 21
163.63644072812531
 31
0.0
  0
LINE
  5
9A2
  8
0
 62
     3
 10
151.44682044648459
 20
157.63644072812531
 30
0.0
 11
145.7423497343751
 21
157.63644072812531
 31
0.0
  0
LINE
  5
9A3
  8
0
 62
     3
 10
146.7423497343751
 20
162.13644072812531
 30
0.0
 11
146.7423497343751
 21
159.13644072812531
 31
0.0
  0
SOLID
  5
9A4
  8
0
 62
     3
 10
146.4923497343751
 20
162.13644072812531
 30
0.0
 11
146.9923497343751
 21
162.13644072812531
 31
0.0
 12
146.7423497343751
 22
163.63644072812531
 32
0.0
 13
146.7423497343751
 23
163.63644072812531
 33
0.0
  0
SOLID
  5
9A5
  8
0
 62
     3
 10
146.4923497343751
 20
159.13644072812531
 30
0.0
 11
146.9923497343751
 21
159.13644072812531
 31
0.0
 12
146.7423497343751
 22
157.63644072812531
 32
0.0
 13
146.7423497343751
 23
157.63644072812531
 33
0.0
  0
INSERT
  5
9A6
  8
0
  2
*U103
 10
0.0
 20
0.0
 30
0.0
  0
POINT
  5
9A7
  8
DEFPOINTS
 62
     0
 10
151.69207984439299
 20
163.63644072812531
 30
0.0
  0
POINT
  5
9A8
  8
DEFPOINTS
 62
     0
 10
151.44682044648459
 20
157.63644072812531
 30
0.0
  0
POINT
  5
9A9
  8
DEFPOINTS
 62
     0
 10
146.7423497343751
 20
157.63644072812531
 30
0.0
  0
ENDBLK
  5
895
  8
0
  0
BLOCK
  8
0
  2
*D23
 70
     1
 10
0.0
 20
0.0
 30
0.0
  3
*D23
  1

  0
LINE
  5
8A2
  8
0
 62
     3
 10
149.80100064096899
 20
167.63644072812571
 30
0.0
 11
137.1138920986468
 21
167.63644072812571
 31
0.0
  0
LINE
  5
8A3
  8
0
 62
     3
 10
149.80100064096899
 20
153.63644072812491
 30
0.0
 11
137.1138920986468
 21
153.63644072812491
 31
0.0
  0
LINE
  5
8A4
  8
0
 62
     3
 10
138.1138920986468
 20
166.13644072812571
 30
0.0
 11
138.1138920986468
 21
155.136440728125
 31
0.0
  0
SOLID
  5
8A5
  8
0
 62
     3
 10
137.8638920986468
 20
166.13644072812571
 30
0.0
 11
138.3638920986468
 21
166.13644072812571
 31
0.0
 12
138.1138920986468
 22
167.63644072812571
 32
0.0
 13
138.1138920986468
 23
167.63644072812571
 33
0.0
  0
SOLID
  5
8A6
  8
0
 62
     3
 10
137.8638920986468
 20
155.136440728125
 30
0.0
 11
138.3638920986468
 21
155.136440728125
 31
0.0
 12
138.1138920986468
 22
153.63644072812491
 32
0.0
 13
138.1138920986468
 23
153.63644072812491
 33
0.0
  0
INSERT
  5
8A7
  8
0
  2
*U84
 10
0.0
 20
0.0
 30
0.0
  0
POINT
  5
8A8
  8
DEFPOINTS
 62
     0
 10
149.80100064096899
 20
167.63644072812571
 30
0.0
  0
POINT
  5
8A9
  8
DEFPOINTS
 62
     0
 10
149.80100064096899
 20
153.63644072812491
 30
0.0
  0
POINT
  5
8AA
  8
DEFPOINTS
 62
     0
 10
138.1138920986468
 20
153.63644072812491
 30
0.0
  0
ENDBLK
  5
8A1
  8
0
  0
BLOCK
  8
0
  2
*D24
 70
     1
 10
0.0
 20
0.0
 30
0.0
  3
*D24
  1

  0
LINE
  5
8AE
  8
0
 62
     3
 10
150.70100064096911
 20
164.63644072812571
 30
0.0
 11
141.31506975255431
 21
164.63644072812571
 31
0.0
  0
LINE
  5
8AF
  8
0
 62
     3
 10
151.60100064096909
 20
156.63644072812491
 30
0.0
 11
141.31506975255431
 21
156.63644072812491
 31
0.0
  0
LINE
  5
8B0
  8
0
 62
     3
 10
142.31506975255431
 20
163.13644072812571
 30
0.0
 11
142.31506975255431
 21
158.13644072812491
 31
0.0
  0
SOLID
  5
8B1
  8
0
 62
     3
 10
142.06506975255431
 20
163.13644072812571
 30
0.0
 11
142.56506975255431
 21
163.13644072812571
 31
0.0
 12
142.31506975255431
 22
164.63644072812571
 32
0.0
 13
142.31506975255431
 23
164.63644072812571
 33
0.0
  0
SOLID
  5
8B2
  8
0
 62
     3
 10
142.06506975255431
 20
158.13644072812491
 30
0.0
 11
142.56506975255431
 21
158.13644072812491
 31
0.0
 12
142.31506975255431
 22
156.63644072812491
 32
0.0
 13
142.31506975255431
 23
156.63644072812491
 33
0.0
  0
INSERT
  5
8B3
  8
0
  2
*U85
 10
0.0
 20
0.0
 30
0.0
  0
POINT
  5
8B4
  8
DEFPOINTS
 62
     0
 10
150.70100064096911
 20
164.63644072812571
 30
0.0
  0
POINT
  5
8B5
  8
DEFPOINTS
 62
     0
 10
151.60100064096909
 20
156.63644072812491
 30
0.0
  0
POINT
  5
8B6
  8
DEFPOINTS
 62
     0
 10
142.31506975255431
 20
156.63644072812491
 30
0.0
  0
ENDBLK
  5
8AD
  8
0
  0
BLOCK
  8
0
  2
*D25
 70
     1
 10
0.0
 20
0.0
 30
0.0
  3
*D25
  1

  0
LINE
  5
8BA
  8
0
 62
     3
 10
151.60100064096909
 20
155.136440728125
 30
0.0
 11
151.60100064096909
 21
144.00084860130821
 31
0.0
  0
LINE
  5
8BB
  8
0
 62
     3
 10
149.80100064096899
 20
155.136440728125
 30
0.0
 11
149.80100064096899
 21
144.00084860130821
 31
0.0
  0
LINE
  5
8BC
  8
0
 62
     3
 10
153.1010006409692
 20
145.00084860130821
 30
0.0
 11
154.6010006409692
 21
145.00084860130821
 31
0.0
  0
LINE
  5
8BD
  8
0
 62
     3
 10
148.30100064096899
 20
145.00084860130821
 30
0.0
 11
142.0676673076357
 21
145.00084860130821
 31
0.0
  0
LINE
  5
8BE
  8
0
 62
     3
 10
151.60100064096909
 20
145.00084860130821
 30
0.0
 11
149.80100064096899
 21
145.00084860130821
 31
0.0
  0
SOLID
  5
8BF
  8
0
 62
     3
 10
153.1010006409692
 20
145.25084860130821
 30
0.0
 11
153.1010006409692
 21
144.75084860130821
 31
0.0
 12
151.60100064096909
 22
145.00084860130821
 32
0.0
 13
151.60100064096909
 23
145.00084860130821
 33
0.0
  0
SOLID
  5
8C0
  8
0
 62
     3
 10
148.30100064096899
 20
145.25084860130821
 30
0.0
 11
148.30100064096899
 21
144.75084860130821
 31
0.0
 12
149.80100064096899
 22
145.00084860130821
 32
0.0
 13
149.80100064096899
 23
145.00084860130821
 33
0.0
  0
INSERT
  5
8C1
  8
0
  2
*U86
 10
0.0
 20
0.0
 30
0.0
  0
POINT
  5
8C2
  8
DEFPOINTS
 62
     0
 10
151.60100064096909
 20
155.136440728125
 30
0.0
  0
POINT
  5
8C3
  8
DEFPOINTS
 62
     0
 10
149.80100064096899
 20
155.136440728125
 30
0.0
  0
POINT
  5
8C4
  8
DEFPOINTS
 62
     0
 10
149.80100064096899
 20
145.00084860130821
 30
0.0
  0
ENDBLK
  5
8B9
  8
0
  0
BLOCK
  8
0
  2
*D26
 70
     1
 10
0.0
 20
0.0
 30
0.0
  3
*D26
  1

  0
LINE
  5
8DA
  8
0
 62
     3
 10
327.4956636914394
 20
155.56558305656671
 30
0.0
 11
328.1952643116885
 21
154.86598243631749
 31
0.0
  0
LINE
  5
8DB
  8
0
 62
     3
 10
327.48123666047007
 20
165.69287136871671
 30
0.0
 11
328.19526431168799
 21
166.40689901993491
 31
0.0
  0
ARC
  5
8DC
  8
0
 62
     3
 10
322.42480601988069
 20
160.6364407281259
 30
0.0
 40
7.4606603773833937
 50
324.22562649024132
 51
35.77437350976313
  0
SOLID
  5
8DD
  8
0
 62
     3
 10
328.63016570622239
 20
156.14538714287741
 30
0.0
 11
328.32549241434458
 21
156.40456697468599
 31
0.0
 12
327.70028956485788
 22
155.36095718314809
 32
0.0
 13
327.70028956485788
 23
155.36095718314809
 33
0.0
  0
SOLID
  5
8DE
  8
0
 62
     3
 10
328.3254924143443
 20
164.8683144815663
 30
0.0
 11
328.6301657062221
 21
165.12749431337491
 31
0.0
 12
327.70028956485748
 22
165.9119242731042
 32
0.0
 13
327.70028956485748
 23
165.9119242731042
 33
0.0
  0
INSERT
  5
8DF
  8
0
  2
*U89
 10
0.0
 20
0.0
 30
0.0
  0
POINT
  5
8E0
  8
DEFPOINTS
 62
     0
 10
329.63125055956669
 20
158.70547973341741
 30
0.0
  0
POINT
  5
8E1
  8
DEFPOINTS
 62
     0
 10
327.48123666047007
 20
165.69287136871671
 30
0.0
  0
POINT
  5
8E2
  8
DEFPOINTS
 62
     0
 10
327.4956636914394
 20
155.56558305656671
 30
0.0
  0
POINT
  5
8E3
  8
DEFPOINTS
 62
     0
 10
322.42480601988012
 20
160.63644072812639
 30
0.0
  0
POINT
  5
8E4
  8
DEFPOINTS
 62
     0
 10
322.42480601988012
 20
160.63644072812551
 30
0.0
  0
ENDBLK
  5
8D9
  8
0
  0
BLOCK
  8
0
  2
*D27
 70
     1
 10
0.0
 20
0.0
 30
0.0
  3
*D27
  1

  0
LINE
  5
8E8
  8
0
 62
     3
 10
286.07455747636408
 20
97.284808267236045
 30
0.0
 11
286.07455747636408
 21
80.653116575662082
 31
0.0
  0
LINE
  5
8E9
  8
0
 62
     3
 10
381.01146016581879
 20
93.755462667691518
 30
0.0
 11
381.01146016581879
 21
80.653116575662082
 31
0.0
  0
LINE
  5
8EA
  8
0
 62
     3
 10
287.27455747636412
 20
81.453116575662094
 30
0.0
 11
379.8114601658188
 21
81.453116575662094
 31
0.0
  0
SOLID
  5
8EB
  8
0
 62
     3
 10
287.27455747636412
 20
81.653116575662082
 30
0.0
 11
287.27455747636412
 21
81.253116575662048
 31
0.0
 12
286.07455747636408
 22
81.453116575662094
 32
0.0
 13
286.07455747636408
 23
81.453116575662094
 33
0.0
  0
SOLID
  5
8EC
  8
0
 62
     3
 10
379.8114601658188
 20
81.653116575662082
 30
0.0
 11
379.8114601658188
 21
81.253116575662048
 31
0.0
 12
381.01146016581879
 22
81.453116575662094
 32
0.0
 13
381.01146016581879
 23
81.453116575662094
 33
0.0
  0
INSERT
  5
8ED
  8
0
  2
*U90
 10
0.0
 20
0.0
 30
0.0
  0
POINT
  5
8EE
  8
DEFPOINTS
 62
     0
 10
286.07455747636408
 20
97.284808267236045
 30
0.0
  0
POINT
  5
8EF
  8
DEFPOINTS
 62
     0
 10
381.01146016581879
 20
93.755462667691518
 30
0.0
  0
POINT
  5
8F0
  8
DEFPOINTS
 62
     0
 10
381.01146016581879
 20
81.453116575662094
 30
0.0
  0
ENDBLK
  5
8E7
  8
0
  0
BLOCK
  8
0
  2
*D28
 70
     1
 10
0.0
 20
0.0
 30
0.0
  3
*D28
  1

  0
LINE
  5
8F4
  8
0
 62
     3
 10
286.07455747636408
 20
88.968962421449064
 30
0.0
 11
286.07455747636408
 21
84.644645152967939
 31
0.0
  0
LINE
  5
8F5
  8
0
 62
     3
 10
328.57455747636408
 20
91.534808267236045
 30
0.0
 11
328.57455747636408
 21
84.644645152967939
 31
0.0
  0
LINE
  5
8F6
  8
0
 62
     3
 10
287.27455747636412
 20
85.444645152967951
 30
0.0
 11
327.37455747636409
 21
85.444645152967951
 31
0.0
  0
SOLID
  5
8F7
  8
0
 62
     3
 10
287.27455747636412
 20
85.644645152967954
 30
0.0
 11
287.27455747636412
 21
85.244645152967948
 31
0.0
 12
286.07455747636408
 22
85.444645152967951
 32
0.0
 13
286.07455747636408
 23
85.444645152967951
 33
0.0
  0
SOLID
  5
8F8
  8
0
 62
     3
 10
327.37455747636409
 20
85.644645152967954
 30
0.0
 11
327.37455747636409
 21
85.244645152967948
 31
0.0
 12
328.57455747636408
 22
85.444645152967951
 32
0.0
 13
328.57455747636408
 23
85.444645152967951
 33
0.0
  0
INSERT
  5
8F9
  8
0
  2
*U91
 10
0.0
 20
0.0
 30
0.0
  0
POINT
  5
8FA
  8
DEFPOINTS
 62
     0
 10
286.07455747636408
 20
88.968962421449064
 30
0.0
  0
POINT
  5
8FB
  8
DEFPOINTS
 62
     0
 10
328.57455747636408
 20
91.534808267236045
 30
0.0
  0
POINT
  5
8FC
  8
DEFPOINTS
 62
     0
 10
328.57455747636408
 20
85.444645152967951
 30
0.0
  0
ENDBLK
  5
8F3
  8
0
  0
BLOCK
  8
0
  2
*D29
 70
     1
 10
0.0
 20
0.0
 30
0.0
  3
*D29
  1

  0
LINE
  5
900
  8
0
 62
     3
 10
318.08890855476778
 20
166.75644072812679
 30
0.0
 11
312.649665658088
 21
166.75644072812679
 31
0.0
  0
LINE
  5
901
  8
0
 62
     3
 10
318.08890855477011
 20
154.5164407281261
 30
0.0
 11
312.649665658088
 21
154.5164407281261
 31
0.0
  0
LINE
  5
902
  8
0
 62
     3
 10
313.649665658088
 20
165.25644072812679
 30
0.0
 11
313.649665658088
 21
156.01644072812621
 31
0.0
  0
SOLID
  5
903
  8
0
 62
     3
 10
313.399665658088
 20
165.25644072812679
 30
0.0
 11
313.899665658088
 21
165.25644072812679
 31
0.0
 12
313.649665658088
 22
166.75644072812679
 32
0.0
 13
313.649665658088
 23
166.75644072812679
 33
0.0
  0
SOLID
  5
904
  8
0
 62
     3
 10
313.399665658088
 20
156.01644072812621
 30
0.0
 11
313.899665658088
 21
156.01644072812621
 31
0.0
 12
313.649665658088
 22
154.5164407281261
 32
0.0
 13
313.649665658088
 23
154.5164407281261
 33
0.0
  0
INSERT
  5
905
  8
0
  2
*U92
 10
0.0
 20
0.0
 30
0.0
  0
POINT
  5
906
  8
DEFPOINTS
 62
     0
 10
318.08890855476778
 20
166.75644072812679
 30
0.0
  0
POINT
  5
907
  8
DEFPOINTS
 62
     0
 10
318.08890855477011
 20
154.5164407281261
 30
0.0
  0
POINT
  5
908
  8
DEFPOINTS
 62
     0
 10
313.649665658088
 20
154.5164407281261
 30
0.0
  0
ENDBLK
  5
8FF
  8
0
  0
BLOCK
  8
0
  2
*D30
 70
     1
 10
0.0
 20
0.0
 30
0.0
  3
*D30
  1

  0
LINE
  5
90C
  8
0
 62
     3
 10
319.96566369144011
 20
155.4344407281267
 30
0.0
 11
318.27270207020052
 21
155.4344407281267
 31
0.0
  0
LINE
  5
90D
  8
0
 62
     3
 10
319.96566369144062
 20
165.83844072812619
 30
0.0
 11
318.27270207020052
 21
165.83844072812619
 31
0.0
  0
LINE
  5
90E
  8
0
 62
     3
 10
319.27270207020052
 20
156.9344407281267
 30
0.0
 11
319.27270207020052
 21
164.33844072812619
 31
0.0
  0
SOLID
  5
90F
  8
0
 62
     3
 10
319.02270207020052
 20
156.9344407281267
 30
0.0
 11
319.52270207020052
 21
156.9344407281267
 31
0.0
 12
319.27270207020052
 22
155.4344407281267
 32
0.0
 13
319.27270207020052
 23
155.4344407281267
 33
0.0
  0
SOLID
  5
910
  8
0
 62
     3
 10
319.02270207020052
 20
164.33844072812619
 30
0.0
 11
319.52270207020052
 21
164.33844072812619
 31
0.0
 12
319.27270207020052
 22
165.83844072812619
 32
0.0
 13
319.27270207020052
 23
165.83844072812619
 33
0.0
  0
INSERT
  5
911
  8
0
  2
*U93
 10
0.0
 20
0.0
 30
0.0
  0
POINT
  5
912
  8
DEFPOINTS
 62
     0
 10
319.96566369144011
 20
155.4344407281267
 30
0.0
  0
POINT
  5
913
  8
DEFPOINTS
 62
     0
 10
319.96566369144062
 20
165.83844072812619
 30
0.0
  0
POINT
  5
914
  8
DEFPOINTS
 62
     0
 10
319.27270207020052
 20
165.83844072812619
 30
0.0
  0
ENDBLK
  5
90B
  8
0
  0
BLOCK
  8
0
  2
*D31
 70
     1
 10
0.0
 20
0.0
 30
0.0
  3
*D31
  1

  0
LINE
  5
918
  8
0
 62
     3
 10
363.42643093400193
 20
167.05815701463919
 30
0.0
 11
363.42643093400193
 21
176.6031907815819
 31
0.0
  0
LINE
  5
919
  8
0
 62
     3
 10
362.62643093400089
 20
167.05815701463879
 30
0.0
 11
362.62643093400089
 21
176.6031907815819
 31
0.0
  0
LINE
  5
91A
  8
0
 62
     3
 10
364.92643093400193
 20
175.6031907815819
 30
0.0
 11
366.42643093400198
 21
175.6031907815819
 31
0.0
  0
LINE
  5
91B
  8
0
 62
     3
 10
361.12643093400078
 20
175.6031907815819
 30
0.0
 11
354.55976426733417
 21
175.6031907815819
 31
0.0
  0
LINE
  5
91C
  8
0
 62
     3
 10
363.42643093400193
 20
175.6031907815819
 30
0.0
 11
362.62643093400089
 21
175.6031907815819
 31
0.0
  0
SOLID
  5
91D
  8
0
 62
     3
 10
364.92643093400193
 20
175.8531907815819
 30
0.0
 11
364.92643093400193
 21
175.35319078158179
 31
0.0
 12
363.42643093400193
 22
175.6031907815819
 32
0.0
 13
363.42643093400193
 23
175.6031907815819
 33
0.0
  0
SOLID
  5
91E
  8
0
 62
     3
 10
361.12643093400078
 20
175.8531907815819
 30
0.0
 11
361.12643093400078
 21
175.35319078158179
 31
0.0
 12
362.62643093400089
 22
175.6031907815819
 32
0.0
 13
362.62643093400089
 23
175.6031907815819
 33
0.0
  0
INSERT
  5
91F
  8
0
  2
*U94
 10
0.0
 20
0.0
 30
0.0
  0
POINT
  5
920
  8
DEFPOINTS
 62
     0
 10
363.42643093400193
 20
167.05815701463919
 30
0.0
  0
POINT
  5
921
  8
DEFPOINTS
 62
     0
 10
362.62643093400089
 20
167.05815701463879
 30
0.0
  0
POINT
  5
922
  8
DEFPOINTS
 62
     0
 10
362.62643093400089
 20
175.6031907815819
 30
0.0
  0
ENDBLK
  5
917
  8
0
  0
BLOCK
  8
0
  2
*D32
 70
     1
 10
0.0
 20
0.0
 30
0.0
  3
*D32
  1

  0
LINE
  5
98F
  8
0
 62
     3
 10
320.64950860806402
 20
160.63644072812619
 30
0.0
 11
319.94950860806409
 21
160.63644072812619
 31
0.0
  0
LINE
  5
990
  8
0
 62
     3
 10
320.67435882157821
 20
152.64360995955889
 30
0.0
 11
319.94950860806409
 21
152.64360995955889
 31
0.0
  0
LINE
  5
991
  8
0
 62
     3
 10
320.64950860806402
 20
159.43644072812609
 30
0.0
 11
320.64950860806402
 21
153.8436099595589
 31
0.0
  0
SOLID
  5
992
  8
0
 62
     3
 10
320.44950860806398
 20
159.43644072812609
 30
0.0
 11
320.84950860806401
 21
159.43644072812609
 31
0.0
 12
320.64950860806402
 22
160.63644072812619
 32
0.0
 13
320.64950860806402
 23
160.63644072812619
 33
0.0
  0
SOLID
  5
993
  8
0
 62
     3
 10
320.44950860806398
 20
153.8436099595589
 30
0.0
 11
320.84950860806401
 21
153.8436099595589
 31
0.0
 12
320.64950860806402
 22
152.64360995955889
 32
0.0
 13
320.64950860806402
 23
152.64360995955889
 33
0.0
  0
INSERT
  5
994
  8
0
  2
*U101
 10
0.0
 20
0.0
 30
0.0
  0
POINT
  5
995
  8
DEFPOINTS
 62
     0
 10
320.64950860806402
 20
160.63644072812619
 30
0.0
  0
POINT
  5
996
  8
DEFPOINTS
 62
     0
 10
320.67435882157821
 20
152.64360995955889
 30
0.0
  0
POINT
  5
997
  8
DEFPOINTS
 62
     0
 10
320.64950860806402
 20
152.64360995955889
 30
0.0
  0
ENDBLK
  5
92E
  8
0
  0
BLOCK
  8
0
  2
*D33
 70
     1
 10
0.0
 20
0.0
 30
0.0
  3
*D33
  1

  0
LINE
  5
93B
  8
0
 62
     3
 10
326.74932705534178
 20
160.63644072812619
 30
0.0
 11
330.90201909833399
 21
160.63644072812619
 31
0.0
  0
LINE
  5
93C
  8
0
 62
     3
 10
327.49566369144083
 20
155.1039986228628
 30
0.0
 11
330.90201909833399
 21
155.1039986228628
 31
0.0
  0
LINE
  5
93D
  8
0
 62
     3
 10
330.20201909833389
 20
159.43644072812609
 30
0.0
 11
330.20201909833389
 21
156.30399862286279
 31
0.0
  0
SOLID
  5
93E
  8
0
 62
     3
 10
330.00201909833402
 20
159.43644072812609
 30
0.0
 11
330.40201909833388
 21
159.43644072812609
 31
0.0
 12
330.20201909833389
 22
160.63644072812619
 32
0.0
 13
330.20201909833389
 23
160.63644072812619
 33
0.0
  0
SOLID
  5
93F
  8
0
 62
     3
 10
330.00201909833402
 20
156.30399862286279
 30
0.0
 11
330.40201909833388
 21
156.30399862286279
 31
0.0
 12
330.20201909833389
 22
155.1039986228628
 32
0.0
 13
330.20201909833389
 23
155.1039986228628
 33
0.0
  0
INSERT
  5
940
  8
0
  2
*U96
 10
0.0
 20
0.0
 30
0.0
  0
POINT
  5
941
  8
DEFPOINTS
 62
     0
 10
326.74932705534178
 20
160.63644072812619
 30
0.0
  0
POINT
  5
942
  8
DEFPOINTS
 62
     0
 10
327.49566369144083
 20
155.1039986228628
 30
0.0
  0
POINT
  5
943
  8
DEFPOINTS
 62
     0
 10
330.20201909833389
 20
155.1039986228628
 30
0.0
  0
ENDBLK
  5
93A
  8
0
  0
BLOCK
  8
0
  2
*D34
 70
     1
 10
0.0
 20
0.0
 30
0.0
  3
*D34
  1

  0
LINE
  5
998
  8
0
 62
     3
 10
321.4956636914394
 20
160.63644072812619
 30
0.0
 11
324.42434387942762
 21
160.63644072812619
 31
0.0
  0
LINE
  5
999
  8
0
 62
     3
 10
321.4956636914394
 20
153.600840728126
 30
0.0
 11
324.42434387942762
 21
153.600840728126
 31
0.0
  0
LINE
  5
99A
  8
0
 62
     3
 10
323.72434387942758
 20
159.43644072812609
 30
0.0
 11
323.72434387942758
 21
154.80084072812599
 31
0.0
  0
SOLID
  5
99B
  8
0
 62
     3
 10
323.5243438794277
 20
159.43644072812609
 30
0.0
 11
323.92434387942762
 21
159.43644072812609
 31
0.0
 12
323.72434387942758
 22
160.63644072812619
 32
0.0
 13
323.72434387942758
 23
160.63644072812619
 33
0.0
  0
SOLID
  5
99C
  8
0
 62
     3
 10
323.5243438794277
 20
154.80084072812599
 30
0.0
 11
323.92434387942762
 21
154.80084072812599
 31
0.0
 12
323.72434387942758
 22
153.600840728126
 32
0.0
 13
323.72434387942758
 23
153.600840728126
 33
0.0
  0
INSERT
  5
99D
  8
0
  2
*U102
 10
0.0
 20
0.0
 30
0.0
  0
POINT
  5
99E
  8
DEFPOINTS
 62
     0
 10
321.4956636914394
 20
160.63644072812619
 30
0.0
  0
POINT
  5
99F
  8
DEFPOINTS
 62
     0
 10
321.4956636914394
 20
153.600840728126
 30
0.0
  0
POINT
  5
9A0
  8
DEFPOINTS
 62
     0
 10
323.72434387942758
 20
153.600840728126
 30
0.0
  0
ENDBLK
  5
946
  8
0
  0
BLOCK
  8
0
  2
*D35
 70
     1
 10
0.0
 20
0.0
 30
0.0
  3
*D35
  1

  0
LINE
  5
953
  8
0
 62
     3
 10
243.96100064094929
 20
152.33199424172659
 30
0.0
 11
247.52945377789001
 21
154.39224162092989
 31
0.0
  0
LINE
  5
954
  8
0
 62
     3
 10
243.96100064094929
 20
167.6934189995398
 30
0.0
 11
247.52945377789001
 21
169.75366637874311
 31
0.0
  0
LINE
  5
955
  8
0
 62
     3
 10
246.52945377789001
 20
155.3148913517403
 30
0.0
 11
246.52945377789001
 21
167.67631610955351
 31
0.0
  0
LINE
  5
956
  8
0
 62
     3
 10
246.52945377789001
 20
169.17631610955351
 30
0.0
 11
246.52945377789001
 21
186.74298277622009
 31
0.0
  0
SOLID
  5
957
  8
0
 62
     3
 10
246.27945377789001
 20
155.3148913517403
 30
0.0
 11
246.77945377789001
 21
155.3148913517403
 31
0.0
 12
246.52945377789001
 22
153.8148913517401
 32
0.0
 13
246.52945377789001
 23
153.8148913517401
 33
0.0
  0
SOLID
  5
958
  8
0
 62
     3
 10
246.27945377789001
 20
167.67631610955351
 30
0.0
 11
246.77945377789001
 21
167.67631610955351
 31
0.0
 12
246.52945377789001
 22
169.17631610955351
 32
0.0
 13
246.52945377789001
 23
169.17631610955351
 33
0.0
  0
INSERT
  5
959
  8
0
  2
*U97
 10
0.0
 20
0.0
 30
0.0
  0
POINT
  5
95A
  8
DEFPOINTS
 62
     0
 10
243.96100064094929
 20
152.33199424172659
 30
0.0
  0
POINT
  5
95B
  8
DEFPOINTS
 62
     0
 10
243.96100064094929
 20
167.6934189995398
 30
0.0
  0
POINT
  5
95C
  8
DEFPOINTS
 62
     0
 10
246.52945377789001
 20
169.17631610955351
 30
0.0
  0
ENDBLK
  5
952
  8
0
  0
BLOCK
  8
0
  2
*D36
 70
     1
 10
0.0
 20
0.0
 30
0.0
  3
*D36
  1

  0
LINE
  5
960
  8
0
 62
     3
 10
149.80100064096899
 20
126.5700045188262
 30
0.0
 11
149.80100064096899
 21
124.76698000130909
 31
0.0
  0
LINE
  5
961
  8
0
 62
     3
 10
240.46100064094941
 20
157.28320326731901
 30
0.0
 11
240.46100064094941
 21
124.76698000130909
 31
0.0
  0
LINE
  5
962
  8
0
 62
     3
 10
151.30100064096899
 20
125.76698000130909
 30
0.0
 11
238.96100064094941
 21
125.76698000130909
 31
0.0
  0
SOLID
  5
963
  8
0
 62
     3
 10
151.30100064096899
 20
126.01698000130909
 30
0.0
 11
151.30100064096899
 21
125.51698000130909
 31
0.0
 12
149.80100064096899
 22
125.76698000130909
 32
0.0
 13
149.80100064096899
 23
125.76698000130909
 33
0.0
  0
SOLID
  5
964
  8
0
 62
     3
 10
238.96100064094941
 20
126.01698000130909
 30
0.0
 11
238.96100064094941
 21
125.51698000130909
 31
0.0
 12
240.46100064094941
 22
125.76698000130909
 32
0.0
 13
240.46100064094941
 23
125.76698000130909
 33
0.0
  0
INSERT
  5
965
  8
0
  2
*U98
 10
0.0
 20
0.0
 30
0.0
  0
POINT
  5
966
  8
DEFPOINTS
 62
     0
 10
149.80100064096899
 20
126.5700045188262
 30
0.0
  0
POINT
  5
967
  8
DEFPOINTS
 62
     0
 10
240.46100064094941
 20
157.28320326731901
 30
0.0
  0
POINT
  5
968
  8
DEFPOINTS
 62
     0
 10
240.46100064094941
 20
125.76698000130909
 30
0.0
  0
ENDBLK
  5
95F
  8
0
  0
BLOCK
  8
0
  2
*D37
 70
     1
 10
0.0
 20
0.0
 30
0.0
  3
*D37
  1

  0
LINE
  5
96C
  8
0
 62
     3
 10
240.46100064094941
 20
140.70695278260149
 30
0.0
 11
240.46100064094941
 21
124.76698000130909
 31
0.0
  0
LINE
  5
96D
  8
0
 62
     3
 10
243.46100064096569
 20
156.1720729178956
 30
0.0
 11
243.46100064096569
 21
124.76698000130909
 31
0.0
  0
LINE
  5
96E
  8
0
 62
     3
 10
238.96100064094941
 20
125.76698000130909
 30
0.0
 11
237.46100064094929
 21
125.76698000130909
 31
0.0
  0
LINE
  5
96F
  8
0
 62
     3
 10
244.96100064096569
 20
125.76698000130909
 30
0.0
 11
246.46100064096569
 21
125.76698000130909
 31
0.0
  0
LINE
  5
970
  8
0
 62
     3
 10
240.46100064094941
 20
125.76698000130909
 30
0.0
 11
243.46100064096569
 21
125.76698000130909
 31
0.0
  0
SOLID
  5
971
  8
0
 62
     3
 10
238.96100064094941
 20
126.01698000130909
 30
0.0
 11
238.96100064094941
 21
125.51698000130909
 31
0.0
 12
240.46100064094941
 22
125.76698000130909
 32
0.0
 13
240.46100064094941
 23
125.76698000130909
 33
0.0
  0
SOLID
  5
972
  8
0
 62
     3
 10
244.96100064096569
 20
126.01698000130909
 30
0.0
 11
244.96100064096569
 21
125.51698000130909
 31
0.0
 12
243.46100064096569
 22
125.76698000130909
 32
0.0
 13
243.46100064096569
 23
125.76698000130909
 33
0.0
  0
INSERT
  5
973
  8
0
  2
*U99
 10
0.0
 20
0.0
 30
0.0
  0
POINT
  5
974
  8
DEFPOINTS
 62
     0
 10
240.46100064094941
 20
140.70695278260149
 30
0.0
  0
POINT
  5
975
  8
DEFPOINTS
 62
     0
 10
243.46100064096569
 20
156.1720729178956
 30
0.0
  0
POINT
  5
976
  8
DEFPOINTS
 62
     0
 10
243.46100064096569
 20
125.76698000130909
 30
0.0
  0
ENDBLK
  5
96B
  8
0
  0
BLOCK
  8
0
  2
*D38
 70
     1
 10
0.0
 20
0.0
 30
0.0
  3
*D38
  1

  0
LINE
  5
97A
  8
0
 62
     3
 10
243.46100064096569
 20
141.15373615618759
 30
0.0
 11
243.46100064096569
 21
133.01204645670711
 31
0.0
  0
LINE
  5
97B
  8
0
 62
     3
 10
244.46100064094981
 20
154.55250738864231
 30
0.0
 11
244.46100064094981
 21
133.01204645670711
 31
0.0
  0
LINE
  5
97C
  8
0
 62
     3
 10
241.96100064096569
 20
134.01204645670711
 30
0.0
 11
240.46100064096569
 21
134.01204645670711
 31
0.0
  0
LINE
  5
97D
  8
0
 62
     3
 10
245.96100064094981
 20
134.01204645670711
 30
0.0
 11
249.5276673076165
 21
134.01204645670711
 31
0.0
  0
LINE
  5
97E
  8
0
 62
     3
 10
243.46100064096569
 20
134.01204645670711
 30
0.0
 11
244.46100064094981
 21
134.01204645670711
 31
0.0
  0
SOLID
  5
97F
  8
0
 62
     3
 10
241.96100064096569
 20
134.26204645670711
 30
0.0
 11
241.96100064096569
 21
133.76204645670711
 31
0.0
 12
243.46100064096569
 22
134.01204645670711
 32
0.0
 13
243.46100064096569
 23
134.01204645670711
 33
0.0
  0
SOLID
  5
980
  8
0
 62
     3
 10
245.96100064094981
 20
134.26204645670711
 30
0.0
 11
245.96100064094981
 21
133.76204645670711
 31
0.0
 12
244.46100064094981
 22
134.01204645670711
 32
0.0
 13
244.46100064094981
 23
134.01204645670711
 33
0.0
  0
INSERT
  5
981
  8
0
  2
*U100
 10
0.0
 20
0.0
 30
0.0
  0
POINT
  5
982
  8
DEFPOINTS
 62
     0
 10
243.46100064096569
 20
141.15373615618759
 30
0.0
  0
POINT
  5
983
  8
DEFPOINTS
 62
     0
 10
244.46100064094981
 20
154.55250738864231
 30
0.0
  0
POINT
  5
984
  8
DEFPOINTS
 62
     0
 10
244.46100064094981
 20
134.01204645670711
 30
0.0
  0
ENDBLK
  5
979
  8
0
  0
BLOCK
  8
0
  2
*D39
 70
     1
 10
0.0
 20
0.0
 30
0.0
  3
*D39
  1

  0
LINE
  5
D17
  8
0
 62
     3
 10
241.58798666919421
 20
143.5461026927552
 30
0.0
 11
243.35384200959231
 21
150.90383327774069
 31
0.0
  0
INSERT
  5
D18
  8
0
  2
*U128
 10
0.0
 20
0.0
 30
0.0
  0
LINE
  5
D19
  8
0
 62
     3
 10
243.96100064094929
 20
153.4336609083926
 30
0.0
 11
243.70390143830559
 21
152.36241423071141
 31
0.0
  0
SOLID
  5
D1A
  8
0
 62
     3
 10
243.1107451840972
 20
150.9621765158596
 30
0.0
 11
243.5969388350874
 21
150.84549003962181
 31
0.0
 12
243.70390143830559
 22
152.36241423071141
 32
0.0
 13
243.70390143830559
 23
152.36241423071141
 33
0.0
  0
POINT
  5
D1B
  8
DEFPOINTS
 62
     0
 10
243.70390143830559
 20
152.36241423071141
 30
0.0
  0
POINT
  5
D1C
  8
DEFPOINTS
 62
     0
 10
243.96100064094929
 20
153.4336609083926
 30
0.0
  0
ENDBLK
  5
987
  8
0
  0
BLOCK
  8
0
  2
*D52
 70
     1
 10
0.0
 20
0.0
 30
0.0
  3
*D52
  1

  0
LINE
  5
BF9
  8
0
 62
     3
 10
661.89652046107585
 20
271.98849514455958
 30
0.0
 11
677.53698006430204
 21
271.98849514455958
 31
0.0
  0
LINE
  5
BFA
  8
0
 62
     3
 10
661.89652046107585
 20
257.26629177706133
 30
0.0
 11
677.53698006430204
 21
257.26629177706133
 31
0.0
  0
LINE
  5
BFB
  8
0
 62
     3
 10
676.53698006430204
 20
270.48849514455958
 30
0.0
 11
676.53698006430204
 21
258.76629177706133
 31
0.0
  0
SOLID
  5
BFC
  8
0
 62
     3
 10
676.28698006430204
 20
270.48849514455958
 30
0.0
 11
676.78698006430204
 21
270.48849514455958
 31
0.0
 12
676.53698006430204
 22
271.98849514455958
 32
0.0
 13
676.53698006430204
 23
271.98849514455958
 33
0.0
  0
SOLID
  5
BFD
  8
0
 62
     3
 10
676.28698006430204
 20
258.76629177706133
 30
0.0
 11
676.78698006430204
 21
258.76629177706133
 31
0.0
 12
676.53698006430204
 22
257.26629177706133
 32
0.0
 13
676.53698006430204
 23
257.26629177706133
 33
0.0
  0
INSERT
  5
BFE
  8
0
  2
*U118
 10
0.0
 20
0.0
 30
0.0
  0
POINT
  5
BFF
  8
DEFPOINTS
 62
     0
 10
661.89652046107585
 20
271.98849514455958
 30
0.0
  0
POINT
  5
C00
  8
DEFPOINTS
 62
     0
 10
661.89652046107585
 20
257.26629177706133
 30
0.0
  0
POINT
  5
C01
  8
DEFPOINTS
 62
     0
 10
676.53698006430204
 20
257.26629177706133
 30
0.0
  0
ENDBLK
  5
BF8
  8
0
  0
BLOCK
  8
0
  2
*D60
 70
     1
 10
0.0
 20
0.0
 30
0.0
  3
*D60
  1

  0
LINE
  5
D21
  8
0
 62
     0
 10
661.27152046107585
 20
271.98849514455958
 30
0.0
 11
647.0867944897941
 21
271.98849514455958
 31
0.0
  0
LINE
  5
D22
  8
0
 62
     0
 10
661.27152046107585
 20
257.26629177706133
 30
0.0
 11
647.0867944897941
 21
257.26629177706133
 31
0.0
  0
LINE
  5
D23
  8
0
 62
     0
 10
648.3367944897941
 20
269.48849514455958
 30
0.0
 11
648.3367944897941
 21
259.76629177706121
 31
0.0
  0
SOLID
  5
D24
  8
0
 62
     0
 10
647.92012782312747
 20
269.48849514455958
 30
0.0
 11
648.75346115646073
 21
269.48849514455958
 31
0.0
 12
648.3367944897941
 22
271.98849514455958
 32
0.0
 13
648.3367944897941
 23
271.98849514455958
 33
0.0
  0
SOLID
  5
D25
  8
0
 62
     0
 10
647.92012782312747
 20
259.76629177706121
 30
0.0
 11
648.75346115646073
 21
259.76629177706121
 31
0.0
 12
648.3367944897941
 22
257.26629177706133
 32
0.0
 13
648.3367944897941
 23
257.26629177706133
 33
0.0
  0
INSERT
  5
D26
  8
0
  2
*U129
 10
0.0
 20
0.0
 30
0.0
  0
POINT
  5
D27
  8
DEFPOINTS
 62
     0
 10
661.89652046107585
 20
271.98849514455958
 30
0.0
  0
POINT
  5
D28
  8
DEFPOINTS
 62
     0
 10
661.89652046107585
 20
257.26629177706133
 30
0.0
  0
POINT
  5
D29
  8
DEFPOINTS
 62
     0
 10
648.3367944897941
 20
257.26629177706133
 30
0.0
  0
ENDBLK
  5
D20
  8
0
  0
BLOCK
  8
0
  2
*D61
 70
     1
 10
0.0
 20
0.0
 30
0.0
  3
*D61
  1

  0
LINE
  5
D3F
  8
0
 62
     0
 10
666.60368770151229
 20
289.10631124583301
 30
0.0
 11
664.18388206709892
 21
274.30277988700982
 31
0.0
  0
INSERT
  5
D40
  8
0
  2
*U130
 10
0.0
 20
0.0
 30
0.0
  0
LINE
  5
D41
  8
0
 62
     0
 10
661.89652046107551
 20
260.30949514455892
 30
0.0
 11
663.78058112803001
 21
271.83552466053931
 31
0.0
  0
SOLID
  5
D42
  8
0
 62
     0
 10
663.77267286268727
 20
274.36999671018799
 30
0.0
 11
664.59509127151068
 21
274.23556306383171
 31
0.0
 12
663.78058112803001
 22
271.83552466053931
 32
0.0
 13
663.78058112803001
 23
271.83552466053931
 33
0.0
  0
POINT
  5
D43
  8
DEFPOINTS
 62
     0
 10
663.78058112803001
 20
271.83552466053931
 30
0.0
  0
POINT
  5
D44
  8
DEFPOINTS
 62
     0
 10
661.89652046107551
 20
260.30949514455892
 30
0.0
  0
ENDBLK
  5
D37
  8
0
  0
BLOCK
  8
0
  2
*D62
 70
     1
 10
0.0
 20
0.0
 30
0.0
  3
*D62
  1

  0
LINE
  5
D52
  8
0
 62
     0
 10
662.64626912090012
 20
238.98862938417281
 30
0.0
 11
660.05842837455009
 21
253.7637124726543
 31
0.0
  0
INSERT
  5
D53
  8
0
  2
*U131
 10
0.0
 20
0.0
 30
0.0
  0
LINE
  5
D54
  8
0
 62
     0
 10
657.61222877838361
 20
267.73010601342628
 30
0.0
 11
659.62712158349166
 21
256.2262263207345
 31
0.0
  0
SOLID
  5
D55
  8
0
 62
     0
 10
660.46884734923015
 20
253.8355969378307
 30
0.0
 11
659.64800939987015
 21
253.69182800747791
 31
0.0
 12
659.62712158349166
 22
256.2262263207345
 32
0.0
 13
659.62712158349166
 23
256.2262263207345
 33
0.0
  0
ARC
  5
D56
  8
0
 62
     0
 10
657.61222877838361
 20
267.73010601342628
 30
0.0
 40
11.67900000000011
 50
273.80217688163782
 51
298.6044742749462
  0
POINT
  5
D57
  8
DEFPOINTS
 62
     0
 10
659.62712158349166
 20
256.2262263207345
 30
0.0
  0
POINT
  5
D58
  8
DEFPOINTS
 62
     0
 10
657.61222877838361
 20
267.73010601342628
 30
0.0
  0
ENDBLK
  5
D49
  8
0
  0
BLOCK
  8
0
  2
*U63
 70
     1
 10
0.0
 20
0.0
 30
0.0
  3
*U63
  1

  0
TEXT
  5
F91
  8
图框
 62
     1
 10
260.288755545237
 20
66.498844462879475
 30
0.0
 40
2.8681711968000001
  1
11
  7
样式_1
  0
ENDBLK
  5
F93
  8
0
  0
BLOCK
  8
0
  2
*U64
 70
     1
 10
0.0
 20
0.0
 30
0.0
  3
*U64
  1

  0
TEXT
  5
F95
  8
图框
 62
     1
 10
259.8741969693391
 20
60.802446972953192
 30
0.0
 40
2.8681711968000001
  1
12
  7
样式_1
  0
ENDBLK
  5
F97
  8
0
  0
BLOCK
  8
0
  2
*U65
 70
     1
 10
0.0
 20
0.0
 30
0.0
  3
*U65
  1

  0
TEXT
  5
F99
  8
图框
 62
     1
 10
259.93515010868299
 20
55.182358811931579
 30
0.0
 40
2.8681711968000001
  1
13
  7
样式_1
  0
ENDBLK
  5
F9B
  8
0
  0
BLOCK
  8
0
  2
*U66
 70
     1
 10
0.0
 20
0.0
 30
0.0
  3
*U66
  1

  0
TEXT
  5
F9D
  8
图框
 62
     1
 10
259.8346389878306
 20
49.885711561017793
 30
0.0
 40
2.8681711968000001
  1
14
  7
样式_1
  0
ENDBLK
  5
F9F
  8
0
  0
BLOCK
  8
0
  2
*U67
 70
     1
 10
0.0
 20
0.0
 30
0.0
  3
*U67
  1

  0
TEXT
  5
FA1
  8
图框
 62
     1
 10
259.8346389878306
 20
44.808838122746401
 30
0.0
 40
2.8681711968000001
  1
15
  7
样式_1
  0
ENDBLK
  5
FA3
  8
0
  0
BLOCK
  8
0
  2
*U68
 70
     1
 10
0.0
 20
0.0
 30
0.0
  3
*U68
  1

  0
TEXT
  5
FA5
  8
图框文字2
 10
326.6096541397701
 20
16.735390477630101
 30
0.0
 40
4.056
  1
40
  7
样式_1
  0
ENDBLK
  5
FA7
  8
0
  0
BLOCK
  8
0
  2
*U69
 70
     1
 10
0.0
 20
0.0
 30
0.0
  3
*U69
  1

  0
TEXT
  5
FA9
  8
图框文字2
 10
310.2172899588
 20
18.451390477630099
 30
0.0
 40
2.339999999999999
  1
4CR13
  7
样式_1
  0
ENDBLK
  5
FAB
  8
0
  0
BLOCK
  8
0
  2
*U70
 70
     1
 10
0.0
 20
0.0
 30
0.0
  3
*U70
  1

  0
TEXT
  5
FAD
  8
0
 62
     3
 10
230.3149988328712
 20
110.701266916829
 30
0.0
 40
2.0
  1
177.69
  0
TEXT
  5
FAE
  8
0
 62
     3
 10
240.31499883287111
 20
113.3679335834957
 30
0.0
 40
2.0
  1
+0.01
  0
TEXT
  5
FAF
  8
0
 62
     3
 10
240.31499883287111
 20
110.701266916829
 30
0.0
 40
2.0
  1
-0
  0
ENDBLK
  5
FB1
  8
0
  0
BLOCK
  8
0
  2
*U71
 70
     1
 10
0.0
 20
0.0
 30
0.0
  3
*U71
  1

  0
TEXT
  5
FB3
  8
0
 62
     3
 10
151.70100064096891
 20
140.95671143473339
 30
0.0
 40
2.0
  1
7.8
  0
ENDBLK
  5
FB5
  8
0
  0
BLOCK
  8
0
  2
*U72
 70
     1
 10
0.0
 20
0.0
 30
0.0
  3
*U72
  1

  0
TEXT
  5
FB7
  8
0
 62
     3
 10
132.49916369284139
 20
157.96977406145939
 30
0.0
 40
2.0
  1
\U+220523
 50
90.0
  0
ENDBLK
  5
FB9
  8
0
  0
BLOCK
  8
0
  2
*U73
 70
     1
 10
0.0
 20
0.0
 30
0.0
  3
*U73
  1

  0
TEXT
  5
FBB
  8
0
 62
     3
 10
185.7843339743076
 20
134.9538753450249
 30
0.0
 40
2.0
  1
85.3
  0
TEXT
  5
FBC
  8
0
 62
     3
 10
192.45100064097431
 20
137.6205420116915
 30
0.0
 40
2.0
  1
+0.01
  0
TEXT
  5
FBD
  8
0
 62
     3
 10
192.45100064097431
 20
134.9538753450249
 30
0.0
 40
2.0
  1
-0
  0
ENDBLK
  5
FBF
  8
0
  0
BLOCK
  8
0
  2
*U74
 70
     1
 10
0.0
 20
0.0
 30
0.0
  3
*U74
  1

  0
TEXT
  5
FC1
  8
0
 62
     3
 10
224.63832253112921
 20
138.94913414986891
 30
0.0
 40
2.0
  1
3.24
  0
ENDBLK
  5
FC3
  8
0
  0
BLOCK
  8
0
  2
*U75
 70
     1
 10
0.0
 20
0.0
 30
0.0
  3
*U75
  1

  0
TEXT
  5
FC5
  8
0
 62
     3
 10
216.220466696024
 20
158.6793732873067
 30
0.0
 40
2.0
  1
8\U+00B0
 50
90.0
  0
ENDBLK
  5
FC7
  8
0
  0
BLOCK
  8
0
  2
*U76
 70
     1
 10
0.0
 20
0.0
 30
0.0
  3
*U76
  1

  0
TEXT
  5
FC9
  8
0
 62
     3
 10
253.31297414393771
 20
170.15675233287399
 30
0.0
 40
2.0
  1
15.12
 50
90.0
  0
TEXT
  5
FCA
  8
0
 62
     3
 10
250.64630747727099
 20
177.49008566620731
 30
0.0
 40
2.0
  1
+0.01
 50
90.0
  0
TEXT
  5
FCB
  8
0
 62
     3
 10
253.31297414393771
 20
177.49008566620731
 30
0.0
 40
2.0
  1
-0
 50
90.0
  0
ENDBLK
  5
FCD
  8
0
  0
BLOCK
  8
0
  2
*U77
 70
     1
 10
0.0
 20
0.0
 30
0.0
  3
*U77
  1

  0
TEXT
  5
FCF
  8
0
 62
     3
 10
236.02100064096589
 20
170.23141899954061
 30
0.0
 40
2.0
  1
16.04
 50
90.0
  0
TEXT
  5
FD0
  8
0
 62
     3
 10
233.35433397429921
 20
177.89808566620729
 30
0.0
 40
2.0
  1
+0.01
 50
90.0
  0
TEXT
  5
FD1
  8
0
 62
     3
 10
236.02100064096589
 20
177.89808566620729
 30
0.0
 40
2.0
  1
-0
 50
90.0
  0
ENDBLK
  5
FD3
  8
0
  0
BLOCK
  8
0
  2
*U78
 70
     1
 10
0.0
 20
0.0
 30
0.0
  3
*U78
  1

  0
TEXT
  5
FD5
  8
0
 62
     3
 10
338.495842351276
 20
156.34059846513239
 30
0.0
 40
2.0
  1
14.72
 50
90.0
  0
ENDBLK
  5
FD7
  8
0
  0
BLOCK
  8
0
  2
*U79
 70
     1
 10
0.0
 20
0.0
 30
0.0
  3
*U79
  1

  0
TEXT
  5
FD9
  8
0
 62
     3
 10
231.31499883287111
 20
119.68656582696821
 30
0.0
 40
2.0
  1
171.69
  0
ENDBLK
  5
FDB
  8
0
  0
BLOCK
  8
0
  2
*U80
 70
     1
 10
0.0
 20
0.0
 30
0.0
  3
*U80
  1

  0
TEXT
  5
FDD
  8
0
 62
     3
 10
229.22389789561819
 20
173.37042066319779
 30
0.0
 40
2.0
  1
16.34
 50
90.0
  0
TEXT
  5
FDE
  8
0
 62
     3
 10
226.55723122895151
 20
181.37042066319779
 30
0.0
 40
2.0
  1
 0
 50
90.0
  0
TEXT
  5
FDF
  8
0
 62
     3
 10
229.22389789561819
 20
181.37042066319779
 30
0.0
 40
2.0
  1
-0.01
 50
90.0
  0
ENDBLK
  5
FE1
  8
0
  0
BLOCK
  8
0
  2
*U81
 70
     1
 10
0.0
 20
0.0
 30
0.0
  3
*U81
  1

  0
TEXT
  5
FE3
  8
0
 62
     3
 10
384.34745759406439
 20
156.5072651317993
 30
0.0
 40
2.0
  1
16.04
 50
90.0
  0
ENDBLK
  5
FE5
  8
0
  0
BLOCK
  8
0
  2
*U82
 70
     1
 10
0.0
 20
0.0
 30
0.0
  3
*U82
  1

  0
TEXT
  5
FE7
  8
0
 62
     3
 10
346.6812061042508
 20
154.46977406145959
 30
0.0
 40
2.0
  1
10
 50
90.0
  0
ENDBLK
  5
FE9
  8
0
  0
BLOCK
  8
0
  2
*U83
 70
     1
 10
0.0
 20
0.0
 30
0.0
  3
*U83
  1

  0
TEXT
  5
FEB
  8
0
 62
     3
 10
310.68899702477353
 20
141.12057153919861
 30
0.0
 40
2.0
  1
14.28
  0
ENDBLK
  5
FED
  8
0
  0
BLOCK
  8
0
  2
*U84
 70
     1
 10
0.0
 20
0.0
 30
0.0
  3
*U84
  1

  0
TEXT
  5
FEF
  8
0
 62
     3
 10
137.41389209864681
 20
158.30310739479199
 30
0.0
 40
2.0
  1
\U+220514
 50
90.0
  0
ENDBLK
  5
FF1
  8
0
  0
BLOCK
  8
0
  2
*U85
 70
     1
 10
0.0
 20
0.0
 30
0.0
  3
*U85
  1

  0
TEXT
  5
FF3
  8
0
 62
     3
 10
141.61506975255429
 20
158.96977406145871
 30
0.0
 40
2.0
  1
\U+22058
 50
90.0
  0
ENDBLK
  5
FF5
  8
0
  0
BLOCK
  8
0
  2
*U86
 70
     1
 10
0.0
 20
0.0
 30
0.0
  3
*U86
  1

  0
TEXT
  5
FF7
  8
0
 62
     3
 10
142.76766730763569
 20
145.70084860130819
 30
0.0
 40
2.0
  1
1.8
  0
ENDBLK
  5
FF9
  8
0
  0
BLOCK
  8
0
  2
*U87
 70
     1
 10
0.0
 20
0.0
 30
0.0
  3
*U87
  1

  0
TEXT
  5
FFB
  8
0
 62
     3
 10
349.91213665109149
 20
156.3405984651325
 30
0.0
 40
2.0
  1
12.82
 50
90.0
  0
ENDBLK
  5
FFD
  8
0
  0
BLOCK
  8
0
  2
*U88
 70
     1
 10
0.0
 20
0.0
 30
0.0
  3
*U88
  1

  0
TEXT
  5
FFF
  8
0
 62
     3
 10
333.76345267418202
 20
156.3424740614594
 30
0.0
 40
2.0
  1
12.82
 50
90.0
  0
ENDBLK
  5
1001
  8
0
  0
BLOCK
  8
0
  2
*U89
 70
     1
 10
0.0
 20
0.0
 30
0.0
  3
*U89
  1

  0
TEXT
  5
1003
  8
0
 62
     3
 10
330.11639206778221
 20
162.56205194558811
 30
0.0
 40
1.5
  1
90\U+00B0
 50
272.22900686211131
  0
ENDBLK
  5
1005
  8
0
  0
BLOCK
  8
0
  2
*U90
 70
     1
 10
0.0
 20
0.0
 30
0.0
  3
*U90
  1

  0
TEXT
  5
1007
  8
0
 62
     2
 10
330.04300882109152
 20
81.953116575662094
 30
0.0
 40
1.5
  1
189.87
  0
ENDBLK
  5
1009
  8
0
  0
BLOCK
  8
0
  2
*U91
 70
     1
 10
0.0
 20
0.0
 30
0.0
  3
*U91
  1

  0
TEXT
  5
100B
  8
0
 62
     2
 10
306.07455747636419
 20
85.944645152967951
 30
0.0
 40
1.5
  1
85
  0
ENDBLK
  5
100D
  8
0
  0
BLOCK
  8
0
  2
*U92
 70
     1
 10
0.0
 20
0.0
 30
0.0
  3
*U92
  1

  0
TEXT
  5
100F
  8
0
 62
     3
 10
312.94966565808801
 20
156.96977406145979
 30
0.0
 40
2.0
  1
12.24
 50
90.0
  0
ENDBLK
  5
1011
  8
0
  0
BLOCK
  8
0
  2
*U93
 70
     1
 10
0.0
 20
0.0
 30
0.0
  3
*U93
  1

  0
TEXT
  5
1013
  8
0
 62
     3
 10
318.57270207020042
 20
158.1364407281265
 30
0.0
 40
2.0
  1
10.4
 50
90.0
  0
ENDBLK
  5
1015
  8
0
  0
BLOCK
  8
0
  2
*U94
 70
     1
 10
0.0
 20
0.0
 30
0.0
  3
*U94
  1

  0
TEXT
  5
1017
  8
0
 62
     3
 10
355.25976426733422
 20
176.3031907815818
 30
0.0
 40
2.0
  1
0.8
  0
ENDBLK
  5
1019
  8
0
  0
BLOCK
  8
0
  2
*U95
 70
     1
 10
0.0
 20
0.0
 30
0.0
  3
*U95
  1

  0
TEXT
  5
101B
  8
0
 62
     3
 10
227.6667573125423
 20
148.6966261297251
 30
0.0
 40
1.5
  1
10.12
  0
ENDBLK
  5
101D
  8
0
  0
BLOCK
  8
0
  2
*U96
 70
     1
 10
0.0
 20
0.0
 30
0.0
  3
*U96
  1

  0
TEXT
  5
101F
  8
0
 62
     3
 10
329.90201909833388
 20
155.6202196754945
 30
0.0
 40
1.5
  1
5.53
 50
90.0
  0
ENDBLK
  5
1021
  8
0
  0
BLOCK
  8
0
  2
*U97
 70
     1
 10
0.0
 20
0.0
 30
0.0
  3
*U97
  1

  0
TEXT
  5
1023
  8
0
 62
     3
 10
245.82945377789
 20
171.3763161095535
 30
0.0
 40
2.0
  1
15.36
 50
90.0
  0
TEXT
  5
1024
  8
0
 62
     3
 10
243.16278711122331
 20
179.37631610955339
 30
0.0
 40
2.0
  1
+0.01
 50
90.0
  0
TEXT
  5
1025
  8
0
 62
     3
 10
245.82945377789
 20
179.37631610955339
 30
0.0
 40
2.0
  1
-0
 50
90.0
  0
ENDBLK
  5
1027
  8
0
  0
BLOCK
  8
0
  2
*U98
 70
     1
 10
0.0
 20
0.0
 30
0.0
  3
*U98
  1

  0
TEXT
  5
1029
  8
0
 62
     3
 10
191.2976673076258
 20
126.4669800013091
 30
0.0
 40
2.0
  1
90.66
  0
ENDBLK
  5
102B
  8
0
  0
BLOCK
  8
0
  2
*U99
 70
     1
 10
0.0
 20
0.0
 30
0.0
  3
*U99
  1

  0
TEXT
  5
102D
  8
0
 62
     3
 10
241.29433397429091
 20
126.4669800013091
 30
0.0
 40
2.0
  1
3
  0
ENDBLK
  5
102F
  8
0
  0
BLOCK
  8
0
  2
*U100
 70
     1
 10
0.0
 20
0.0
 30
0.0
  3
*U100
  1

  0
TEXT
  5
1031
  8
0
 62
     3
 10
248.16100064094979
 20
134.7120464567071
 30
0.0
 40
2.0
  1
1
  0
ENDBLK
  5
1033
  8
0
  0
BLOCK
  8
0
  2
*U101
 70
     1
 10
0.0
 20
0.0
 30
0.0
  3
*U101
  1

  0
TEXT
  5
1035
  8
0
 62
     3
 10
320.3495086080639
 20
154.39002534384261
 30
0.0
 40
1.5
  1
7.99
 50
90.0
  0
ENDBLK
  5
1037
  8
0
  0
BLOCK
  8
0
  2
*U102
 70
     1
 10
0.0
 20
0.0
 30
0.0
  3
*U102
  1

  0
TEXT
  5
1039
  8
0
 62
     3
 10
323.42434387942751
 20
154.99364072812619
 30
0.0
 40
1.5
  1
7.04
 50
90.0
  0
ENDBLK
  5
103B
  8
0
  0
BLOCK
  8
0
  2
*U103
 70
     1
 10
0.0
 20
0.0
 30
0.0
  3
*U103
  1

  0
TEXT
  5
103D
  8
0
 62
     3
 10
146.04234973437511
 20
158.96977406145859
 30
0.0
 40
2.0
  1
\U+22056
 50
90.0
  0
ENDBLK
  5
103F
  8
0
  0
BLOCK
  8
0
  2
*U104
 70
     1
 10
0.0
 20
0.0
 30
0.0
  3
*U104
  1

  0
TEXT
  5
1041
  8
0
 62
     3
 10
186.0033442878364
 20
154.63644072812559
 30
0.0
 40
2.0
  1
\U+220519
 50
90.0
  0
TEXT
  5
1042
  8
0
 62
     3
 10
183.33667762116971
 20
159.96977406145891
 30
0.0
 40
2.0
  1
 0
 50
90.0
  0
TEXT
  5
1043
  8
0
 62
     3
 10
186.0033442878364
 20
159.96977406145891
 30
0.0
 40
2.0
  1
-0.01
 50
90.0
  0
ENDBLK
  5
1045
  8
0
  0
BLOCK
  8
0
  2
*U105
 70
     1
 10
0.0
 20
0.0
 30
0.0
  3
*U105
  1

  0
TEXT
  5
1047
  8
0
 62
     3
 10
376.96689053722798
 20
156.3405984651327
 30
0.0
 40
2.0
  1
14.72
 50
90.0
  0
ENDBLK
  5
1049
  8
0
  0
BLOCK
  8
0
  2
*U106
 70
     1
 10
0.0
 20
0.0
 30
0.0
  3
*U106
  1

  0
TEXT
  5
104B
  8
0
 62
     3
 10
380.79533094284187
 20
156.3405984651327
 30
0.0
 40
2.0
  1
15.22
 50
90.0
  0
ENDBLK
  5
104D
  8
0
  0
BLOCK
  8
0
  2
*U107
 70
     1
 10
0.0
 20
0.0
 30
0.0
  3
*U107
  1

  0
TEXT
  5
104F
  8
0
 62
     3
 10
387.72879801489472
 20
156.3405984651327
 30
0.0
 40
2.0
  1
16.34
 50
90.0
  0
ENDBLK
  5
1051
  8
0
  0
BLOCK
  8
0
  2
*U108
 70
     1
 10
0.0
 20
0.0
 30
0.0
  3
*U108
  1

  0
TEXT
  5
106B
  8
0
 62
     0
 10
1468.994874479014
 20
1346.5994521251521
 30
0.0
 40
2.5
  1
180\U+00B0
 50
359.9069623415038
  0
ENDBLK
  5
106D
  8
0
  0
BLOCK
  8
0
  2
*U109
 70
     1
 10
0.0
 20
0.0
 30
0.0
  3
*U109
  1

  0
TEXT
  5
106F
  8
0
 62
     0
 10
103.9977684475883
 20
173.7249252978103
 30
0.0
 40
2.5
  1
0,1860753\U+00B0
 50
88.397591862794556
  0
ENDBLK
  5
1071
  8
0
  0
BLOCK
  8
0
  2
*U110
 70
     1
 10
0.0
 20
0.0
 30
0.0
  3
*U110
  1

  0
TEXT
  5
1073
  8
0
 62
     0
 10
369.0628352598394
 20
170.92420216941599
 30
0.0
 40
2.5
  1
R10,73
 50
64.740824104521494
  0
ENDBLK
  5
1075
  8
0
  0
BLOCK
  8
0
  2
*U111
 70
     1
 10
0.0
 20
0.0
 30
0.0
  3
*U111
  1

  0
TEXT
  5
1077
  8
0
 62
     0
 10
264.71128819371671
 20
155.42746468098181
 30
0.0
 40
2.5
  1
15,05
 50
90.0
  0
ENDBLK
  5
1079
  8
0
  0
BLOCK
  8
0
  2
*U112
 70
     1
 10
0.0
 20
0.0
 30
0.0
  3
*U112
  1

  0
TEXT
  5
107B
  8
0
 62
     0
 10
285.13456694649977
 20
179.33089350912689
 30
0.0
 40
2.5
  1
63,14
  0
ENDBLK
  5
107D
  8
0
  0
BLOCK
  8
0
  2
*U113
 70
     1
 10
0.0
 20
0.0
 30
0.0
  3
*U113
  1

  0
TEXT
  5
107F
  8
0
 62
     0
 10
264.82759363365801
 20
155.63671297384781
 30
0.0
 40
2.5
  1
15,12
 50
90.0
  0
ENDBLK
  5
1081
  8
0
  0
BLOCK
  8
0
  2
*U114
 70
     1
 10
0.0
 20
0.0
 30
0.0
  3
*U114
  1

  0
TEXT
  5
1083
  8
0
 62
     3
 10
683.21754712113818
 20
261.12739346081048
 30
0.0
 40
2.0
  1
16.04
 50
90.0
  0
ENDBLK
  5
1085
  8
0
  0
BLOCK
  8
0
  2
*U115
 70
     1
 10
0.0
 20
0.0
 30
0.0
  3
*U115
  1

  0
TEXT
  5
1087
  8
0
 62
     3
 10
645.55129563132482
 20
259.08990239047091
 30
0.0
 40
2.0
  1
10
 50
90.0
  0
ENDBLK
  5
1089
  8
0
  0
BLOCK
  8
0
  2
*U116
 70
     1
 10
0.0
 20
0.0
 30
0.0
  3
*U116
  1

  0
TEXT
  5
108B
  8
0
 62
     3
 10
686.59888754196845
 20
260.96072679414391
 30
0.0
 40
2.0
  1
16.34
 50
90.0
  0
ENDBLK
  5
108D
  8
0
  0
BLOCK
  8
0
  2
*U117
 70
     1
 10
0.0
 20
0.0
 30
0.0
  3
*U117
  1

  0
TEXT
  5
108F
  8
0
 62
     3
 10
679.66542046991583
 20
260.9607267941438
 30
0.0
 40
2.0
  1
15.22
 50
90.0
  0
ENDBLK
  5
1091
  8
0
  0
BLOCK
  8
0
  2
*U118
 70
     1
 10
0.0
 20
0.0
 30
0.0
  3
*U118
  1

  0
TEXT
  5
1093
  8
0
 62
     3
 10
675.83698006430177
 20
260.9607267941438
 30
0.0
 40
2.0
  1
14.72
 50
90.0
  0
ENDBLK
  5
1095
  8
0
  0
BLOCK
  8
0
  2
*U119
 70
     1
 10
0.0
 20
0.0
 30
0.0
  3
*U119
  1

  0
TEXT
  5
1097
  8
0
 62
     3
 10
648.78222617816527
 20
260.9607267941438
 30
0.0
 40
2.0
  1
12.82
 50
90.0
  0
ENDBLK
  5
1099
  8
0
  0
BLOCK
  8
0
  2
*U120
 70
     1
 10
0.0
 20
0.0
 30
0.0
  3
*U120
  1

  0
TEXT
  5
109B
  8
0
 62
     3
 10
654.12985379440806
 20
280.92331911059313
 30
0.0
 40
2.0
  1
0.8
  0
ENDBLK
  5
109D
  8
0
  0
BLOCK
  8
0
  2
*U121
 70
     1
 10
0.0
 20
0.0
 30
0.0
  3
*U121
  1

  0
TEXT
  5
109F
  8
0
 62
     3
 10
706.87741074309724
 20
279.9156397943832
 30
0.0
 40
2.0
  1
0.8
  0
ENDBLK
  5
10A1
  8
0
  0
BLOCK
  8
0
  2
*U122
 70
     1
 10
0.0
 20
0.0
 30
0.0
  3
*U122
  1

  0
TEXT
  5
10A3
  8
0
 62
     3
 10
735.96510406982736
 20
260.11971414460072
 30
0.0
 40
2.0
  1
16.04
 50
90.0
  0
ENDBLK
  5
10A5
  8
0
  0
BLOCK
  8
0
  2
*U123
 70
     1
 10
0.0
 20
0.0
 30
0.0
  3
*U123
  1

  0
TEXT
  5
10A7
  8
0
 62
     3
 10
698.29885258001389
 20
258.08222307426098
 30
0.0
 40
2.0
  1
10
 50
90.0
  0
ENDBLK
  5
10A9
  8
0
  0
BLOCK
  8
0
  2
*U124
 70
     1
 10
0.0
 20
0.0
 30
0.0
  3
*U124
  1

  0
TEXT
  5
10AB
  8
0
 62
     3
 10
739.34644449065775
 20
259.95304747793398
 30
0.0
 40
2.0
  1
16.34
 50
90.0
  0
ENDBLK
  5
10AD
  8
0
  0
BLOCK
  8
0
  2
*U125
 70
     1
 10
0.0
 20
0.0
 30
0.0
  3
*U125
  1

  0
TEXT
  5
10AF
  8
0
 62
     3
 10
732.41297741860501
 20
259.95304747793398
 30
0.0
 40
2.0
  1
15.22
 50
90.0
  0
ENDBLK
  5
10B1
  8
0
  0
BLOCK
  8
0
  2
*U126
 70
     1
 10
0.0
 20
0.0
 30
0.0
  3
*U126
  1

  0
TEXT
  5
10B3
  8
0
 62
     3
 10
728.58453701299095
 20
259.95304747793398
 30
0.0
 40
2.0
  1
14.72
 50
90.0
  0
ENDBLK
  5
10B5
  8
0
  0
BLOCK
  8
0
  2
*U127
 70
     1
 10
0.0
 20
0.0
 30
0.0
  3
*U127
  1

  0
TEXT
  5
10B7
  8
0
 62
     3
 10
701.52978312685445
 20
259.95304747793392
 30
0.0
 40
2.0
  1
12.82
 50
90.0
  0
ENDBLK
  5
10B9
  8
0
  0
BLOCK
  8
0
  2
*U128
 70
     1
 10
0.0
 20
0.0
 30
0.0
  3
*U128
  1

  0
TEXT
  5
10BB
  8
0
 62
     3
 10
241.07067662454079
 20
144.39013487087439
 30
0.0
 40
2.0
  1
R1.1
 50
76.504266719192486
  0
ENDBLK
  5
10BD
  8
0
  0
BLOCK
  8
0
  2
*U129
 70
     1
 10
0.0
 20
0.0
 30
0.0
  3
*U129
  1

  0
TEXT
  5
10BF
  8
0
 62
     0
 10
647.29512782312725
 20
259.8357267941438
 30
0.0
 40
2.5
  1
14,72
 50
90.0
  0
ENDBLK
  5
10C1
  8
0
  0
BLOCK
  8
0
  2
*U130
 70
     1
 10
0.0
 20
0.0
 30
0.0
  3
*U130
  1

  0
TEXT
  5
10C3
  8
0
 62
     0
 10
663.6599852299056
 20
277.55489097804337
 30
0.0
 40
2.5
  1
R11,68
 50
80.716456152133517
  0
ENDBLK
  5
10C5
  8
0
  0
BLOCK
  8
0
  2
*U131
 70
     1
 10
0.0
 20
0.0
 30
0.0
  3
*U131
  1

  0
TEXT
  5
10C7
  8
0
 62
     0
 10
661.62360930007321
 20
250.86528132549509
 30
0.0
 40
2.5
  1
R11,68
 50
279.93452763010532
  0
ENDBLK
  5
10C9
  8
0
  0
ENDSEC
  0
SECTION
  2
ENTITIES
  0
INSERT
  5
5F2
  8
0
  2
*U63
 10
0.0
 20
0.0
 30
0.0
  0
INSERT
  5
5F3
  8
0
  2
*U64
 10
0.0
 20
0.0
 30
0.0
  0
INSERT
  5
5F4
  8
0
  2
*U65
 10
0.0
 20
0.0
 30
0.0
  0
INSERT
  5
5F5
  8
0
  2
*U66
 10
0.0
 20
0.0
 30
0.0
  0
INSERT
  5
5F8
  8
0
  2
*U67
 10
0.0
 20
0.0
 30
0.0
  0
INSERT
  5
5FD
  8
0
  2
*U68
 10
0.0
 20
0.0
 30
0.0
  0
INSERT
  5
5FE
  8
0
  2
*U69
 10
0.0
 20
0.0
 30
0.0
  0
ARC
  5
B5D
  8
0
 10
661.89652046107585
 20
260.30949514455961
 30
0.0
 40
11.679
 50
61.670649649172731
 51
118.3293503508272
  0
ARC
  5
B62
  8
0
 10
665.76876017298582
 20
267.49220769717562
 30
0.0
 40
3.5189999999999979
 50
358.32935035082153
 51
61.670649649172731
  0
ARC
  5
B67
  8
0
 10
657.61222877838372
 20
267.73010601342611
 30
0.0
 40
11.679
 50
301.67064964918001
 51
358.32935035082153
  0
ARC
  5
B6D
  8
0
 10
661.89652046107585
 20
260.78529177706122
 30
0.0
 40
3.5189999999999979
 50
238.32935035081999
 51
301.67064964918001
  0
ARC
  5
B73
  8
0
 10
666.18081214376684
 20
267.73010601342611
 30
0.0
 40
11.679
 50
181.6706496491785
 51
238.32935035081999
  0
ARC
  5
B79
  8
0
 10
658.02428074916577
 20
267.49220769717562
 30
0.0
 40
3.5189999999999979
 50
118.3293503508272
 51
181.6706496491785
  0
ENDSEC
  0
EOF
