0
SECTION
2
HEADER
0
ENDSEC
0
SECTION
2
TABLES
0
ENDSEC
0
SECTION
2
BLOCKS
0
ENDSEC
0
SECTION
2
ENTITIES
0
LINE
100
AcDbEntity
8
0
100
AcDbLine
10
-733.983400
20
-2.366156
30
0.000000
11
-732.330258
21
-54.038039
31
0.000000
0
LINE
100
AcDbEntity
8
0
100
AcDbLine
10
-732.330258
20
-54.038039
30
0.000000
11
-727.324356
21
-105.495320
31
0.000000
0
LINE
100
AcDbEntity
8
0
100
AcDbLine
10
-727.324356
20
-105.495320
30
0.000000
11
-718.981161
21
-156.517660
31
0.000000
0
LINE
100
AcDbEntity
8
0
100
AcDbLine
10
-718.981161
20
-156.517660
30
0.000000
11
-707.298809
21
-206.880514
31
0.000000
0
LINE
100
AcDbEntity
8
0
100
AcDbLine
10
-707.298809
20
-206.880514
30
0.000000
11
-692.328468
21
-256.366044
31
0.000000
0
LINE
100
AcDbEntity
8
0
100
AcDbLine
10
-692.328468
20
-256.366044
30
0.000000
11
-675.931470
21
-300.415425
31
0.000000
0
LINE
100
AcDbEntity
8
0
100
AcDbLine
10
-675.931470
20
-300.415425
30
0.000000
11
-656.882438
21
-343.386125
31
0.000000
0
LINE
100
AcDbEntity
8
0
100
AcDbLine
10
-656.882438
20
-343.386125
30
0.000000
11
-635.240344
21
-385.109072
31
0.000000
0
LINE
100
AcDbEntity
8
0
100
AcDbLine
10
-635.240344
20
-385.109072
30
0.000000
11
-611.099014
21
-425.435894
31
0.000000
0
LINE
100
AcDbEntity
8
0
100
AcDbLine
10
-611.099014
20
-425.435894
30
0.000000
11
-584.525246
21
-464.204623
31
0.000000
0
LINE
100
AcDbEntity
8
0
100
AcDbLine
10
-584.525246
20
-464.204623
30
0.000000
11
-555.568032
21
-501.226957
31
0.000000
0
LINE
100
AcDbEntity
8
0
100
AcDbLine
10
-555.568032
20
-501.226957
30
0.000000
11
-524.350653
21
-536.361544
31
0.000000
0
LINE
100
AcDbEntity
8
0
100
AcDbLine
10
-524.350653
20
-536.361544
30
0.000000
11
-487.530789
21
-572.651246
31
0.000000
0
LINE
100
AcDbEntity
8
0
100
AcDbLine
10
-487.530789
20
-572.651246
30
0.000000
11
-448.266635
21
-606.281728
31
0.000000
0
LINE
100
AcDbEntity
8
0
100
AcDbLine
10
-448.266635
20
-606.281728
30
0.000000
11
-406.721686
21
-637.050883
31
0.000000
0
LINE
100
AcDbEntity
8
0
100
AcDbLine
10
-406.721686
20
-637.050883
30
0.000000
11
-363.105399
21
-664.805079
31
0.000000
0
LINE
100
AcDbEntity
8
0
100
AcDbLine
10
-363.105399
20
-664.805079
30
0.000000
11
-317.608878
21
-689.356052
31
0.000000
0
LINE
100
AcDbEntity
8
0
100
AcDbLine
10
-317.608878
20
-689.356052
30
0.000000
11
-274.825377
21
-708.812621
31
0.000000
0
LINE
100
AcDbEntity
8
0
100
AcDbLine
10
-274.825377
20
-708.812621
30
0.000000
11
-230.856713
21
-725.416167
31
0.000000
0
LINE
100
AcDbEntity
8
0
100
AcDbLine
10
-230.856713
20
-725.416167
30
0.000000
11
-185.891883
21
-739.092852
31
0.000000
0
LINE
100
AcDbEntity
8
0
100
AcDbLine
10
-185.891883
20
-739.092852
30
0.000000
11
-140.121986
21
-749.776876
31
0.000000
0
LINE
100
AcDbEntity
8
0
100
AcDbLine
10
-140.121986
20
-749.776876
30
0.000000
11
-93.739887
21
-757.370191
31
0.000000
0
LINE
100
AcDbEntity
8
0
100
AcDbLine
10
-93.739887
20
-757.370191
30
0.000000
11
-46.964908
21
-761.948760
31
0.000000
0
LINE
100
AcDbEntity
8
0
100
AcDbLine
10
-46.964908
20
-761.948760
30
0.000000
11
0.012078
21
-763.370312
31
0.000000
0
LINE
100
AcDbEntity
8
0
100
AcDbLine
10
0.012078
20
-763.370312
30
0.000000
11
43.071690
21
-761.948960
31
0.000000
0
LINE
100
AcDbEntity
8
0
100
AcDbLine
10
43.071690
20
-761.948960
30
0.000000
11
85.968062
21
-757.934500
31
0.000000
0
LINE
100
AcDbEntity
8
0
100
AcDbLine
10
85.968062
20
-757.934500
30
0.000000
11
128.537062
21
-751.291973
31
0.000000
0
LINE
100
AcDbEntity
8
0
100
AcDbLine
10
128.537062
20
-751.291973
30
0.000000
11
170.632961
21
-742.117359
31
0.000000
0
LINE
100
AcDbEntity
8
0
100
AcDbLine
10
170.632961
20
-742.117359
30
0.000000
11
212.092699
21
-730.400452
31
0.000000
0
LINE
100
AcDbEntity
8
0
100
AcDbLine
10
212.092699
20
-730.400452
30
0.000000
11
252.783174
21
-716.240273
31
0.000000
0
LINE
100
AcDbEntity
8
0
100
AcDbLine
10
252.783174
20
-716.240273
30
0.000000
11
296.105496
21
-698.015199
31
0.000000
0
LINE
100
AcDbEntity
8
0
100
AcDbLine
10
296.105496
20
-698.015199
30
0.000000
11
338.155389
21
-677.019442
31
0.000000
0
LINE
100
AcDbEntity
8
0
100
AcDbLine
10
338.155389
20
-677.019442
30
0.000000
11
378.758963
21
-653.347720
31
0.000000
0
LINE
100
AcDbEntity
8
0
100
AcDbLine
10
378.758963
20
-653.347720
30
0.000000
11
417.745478
21
-627.098579
31
0.000000
0
LINE
100
AcDbEntity
8
0
100
AcDbLine
10
417.745478
20
-627.098579
30
0.000000
11
454.977556
21
-598.415415
31
0.000000
0
LINE
100
AcDbEntity
8
0
100
AcDbLine
10
454.977556
20
-598.415415
30
0.000000
11
490.332973
21
-567.448833
31
0.000000
0
LINE
100
AcDbEntity
8
0
100
AcDbLine
10
490.332973
20
-567.448833
30
0.000000
11
523.638352
21
-534.286365
31
0.000000
0
LINE
100
AcDbEntity
8
0
100
AcDbLine
10
523.638352
20
-534.286365
30
0.000000
11
557.801700
21
-495.484252
31
0.000000
0
LINE
100
AcDbEntity
8
0
100
AcDbLine
10
557.801700
20
-495.484252
30
0.000000
11
589.246673
21
-454.448615
31
0.000000
0
LINE
100
AcDbEntity
8
0
100
AcDbLine
10
589.246673
20
-454.448615
30
0.000000
11
617.813034
21
-411.359129
31
0.000000
0
LINE
100
AcDbEntity
8
0
100
AcDbLine
10
617.813034
20
-411.359129
30
0.000000
11
643.447341
21
-366.463551
31
0.000000
0
LINE
100
AcDbEntity
8
0
100
AcDbLine
10
643.447341
20
-366.463551
30
0.000000
11
666.001434
21
-319.944719
31
0.000000
0
LINE
100
AcDbEntity
8
0
100
AcDbLine
10
666.001434
20
-319.944719
30
0.000000
11
683.798614
21
-276.444871
31
0.000000
0
LINE
100
AcDbEntity
8
0
100
AcDbLine
10
683.798614
20
-276.444871
30
0.000000
11
698.957684
21
-231.956751
31
0.000000
0
LINE
100
AcDbEntity
8
0
100
AcDbLine
10
698.957684
20
-231.956751
30
0.000000
11
711.434910
21
-186.643021
31
0.000000
0
LINE
100
AcDbEntity
8
0
100
AcDbLine
10
711.434910
20
-186.643021
30
0.000000
11
721.199992
21
-140.668792
31
0.000000
0
LINE
100
AcDbEntity
8
0
100
AcDbLine
10
721.199992
20
-140.668792
30
0.000000
11
728.260778
21
-94.202076
31
0.000000
0
LINE
100
AcDbEntity
8
0
100
AcDbLine
10
728.260778
20
-94.202076
30
0.000000
11
732.491894
21
-47.386072
31
0.000000
0
LINE
100
AcDbEntity
8
0
100
AcDbLine
10
732.491894
20
-47.386072
30
0.000000
11
733.983994
21
-0.410356
31
0.000000
0
LINE
100
AcDbEntity
8
0
100
AcDbLine
10
733.984200
20
-0.410356
30
0.000000
11
732.482502
21
51.349494
31
0.000000
0
LINE
100
AcDbEntity
8
0
100
AcDbLine
10
732.482502
20
51.349494
30
0.000000
11
727.572836
21
102.898126
31
0.000000
0
LINE
100
AcDbEntity
8
0
100
AcDbLine
10
727.572836
20
102.898126
30
0.000000
11
719.318688
21
154.019974
31
0.000000
0
LINE
100
AcDbEntity
8
0
100
AcDbLine
10
719.318688
20
154.019974
30
0.000000
11
707.701290
21
204.481036
31
0.000000
0
LINE
100
AcDbEntity
8
0
100
AcDbLine
10
707.701290
20
204.481036
30
0.000000
11
692.822138
21
254.078170
31
0.000000
0
LINE
100
AcDbEntity
8
0
100
AcDbLine
10
692.822138
20
254.078170
30
0.000000
11
676.462633
21
298.219119
31
0.000000
0
LINE
100
AcDbEntity
8
0
100
AcDbLine
10
676.462633
20
298.219119
30
0.000000
11
657.463041
21
341.289902
31
0.000000
0
LINE
100
AcDbEntity
8
0
100
AcDbLine
10
657.463041
20
341.289902
30
0.000000
11
635.874795
21
383.125926
31
0.000000
0
LINE
100
AcDbEntity
8
0
100
AcDbLine
10
635.874795
20
383.125926
30
0.000000
11
611.753335
21
423.552471
31
0.000000
0
LINE
100
AcDbEntity
8
0
100
AcDbLine
10
611.753335
20
423.552471
30
0.000000
11
585.180269
21
462.409791
31
0.000000
0
LINE
100
AcDbEntity
8
0
100
AcDbLine
10
585.180269
20
462.409791
30
0.000000
11
556.231168
21
499.530459
31
0.000000
0
LINE
100
AcDbEntity
8
0
100
AcDbLine
10
556.231168
20
499.530459
30
0.000000
11
525.018581
21
534.769975
31
0.000000
0
LINE
100
AcDbEntity
8
0
100
AcDbLine
10
525.018581
20
534.769975
30
0.000000
11
494.500126
21
565.278391
31
0.000000
0
LINE
100
AcDbEntity
8
0
100
AcDbLine
10
494.500126
20
565.278391
30
0.000000
11
462.241095
21
593.939456
31
0.000000
0
LINE
100
AcDbEntity
8
0
100
AcDbLine
10
462.241095
20
593.939456
30
0.000000
11
428.378650
21
620.687048
31
0.000000
0
LINE
100
AcDbEntity
8
0
100
AcDbLine
10
428.378650
20
620.687048
30
0.000000
11
392.971938
21
645.354509
31
0.000000
0
LINE
100
AcDbEntity
8
0
100
AcDbLine
10
392.971938
20
645.354509
30
0.000000
11
356.182904
21
667.908170
31
0.000000
0
LINE
100
AcDbEntity
8
0
100
AcDbLine
10
356.182904
20
667.908170
30
0.000000
11
318.107297
21
688.214057
31
0.000000
0
LINE
100
AcDbEntity
8
0
100
AcDbLine
10
318.107297
20
688.214057
30
0.000000
11
275.266362
21
707.721932
31
0.000000
0
LINE
100
AcDbEntity
8
0
100
AcDbLine
10
275.266362
20
707.721932
30
0.000000
11
231.239196
21
724.382727
31
0.000000
0
LINE
100
AcDbEntity
8
0
100
AcDbLine
10
231.239196
20
724.382727
30
0.000000
11
186.207944
21
738.097710
31
0.000000
0
LINE
100
AcDbEntity
8
0
100
AcDbLine
10
186.207944
20
738.097710
30
0.000000
11
140.371304
21
748.816770
31
0.000000
0
LINE
100
AcDbEntity
8
0
100
AcDbLine
10
140.371304
20
748.816770
30
0.000000
11
93.923601
21
756.465375
31
0.000000
0
LINE
100
AcDbEntity
8
0
100
AcDbLine
10
93.923601
20
756.465375
30
0.000000
11
47.071977
21
761.032846
31
0.000000
0
LINE
100
AcDbEntity
8
0
100
AcDbLine
10
47.071977
20
761.032846
30
0.000000
11
0.019919
21
762.475474
31
0.000000
0
LINE
100
AcDbEntity
8
0
100
AcDbLine
10
0.019919
20
762.475474
30
0.000000
11
-43.108924
21
761.047233
31
0.000000
0
LINE
100
AcDbEntity
8
0
100
AcDbLine
10
-43.108924
20
761.047233
30
0.000000
11
-86.071916
21
757.010229
31
0.000000
0
LINE
100
AcDbEntity
8
0
100
AcDbLine
10
-86.071916
20
757.010229
30
0.000000
11
-128.708975
21
750.361057
31
0.000000
0
LINE
100
AcDbEntity
8
0
100
AcDbLine
10
-128.708975
20
750.361057
30
0.000000
11
-170.862469
21
741.133430
31
0.000000
0
LINE
100
AcDbEntity
8
0
100
AcDbLine
10
-170.862469
20
741.133430
30
0.000000
11
-212.387733
21
729.396557
31
0.000000
0
LINE
100
AcDbEntity
8
0
100
AcDbLine
10
-212.387733
20
729.396557
30
0.000000
11
-253.134451
21
715.190088
31
0.000000
0
LINE
100
AcDbEntity
8
0
100
AcDbLine
10
-253.134451
20
715.190088
30
0.000000
11
-296.515293
21
696.912508
31
0.000000
0
LINE
100
AcDbEntity
8
0
100
AcDbLine
10
-296.515293
20
696.912508
30
0.000000
11
-338.612905
21
675.847061
31
0.000000
0
LINE
100
AcDbEntity
8
0
100
AcDbLine
10
-338.612905
20
675.847061
30
0.000000
11
-379.255680
21
652.095592
31
0.000000
0
LINE
100
AcDbEntity
8
0
100
AcDbLine
10
-379.255680
20
652.095592
30
0.000000
11
-418.286598
21
625.778395
31
0.000000
0
LINE
100
AcDbEntity
8
0
100
AcDbLine
10
-418.286598
20
625.778395
30
0.000000
11
-455.557621
21
597.022014
31
0.000000
0
LINE
100
AcDbEntity
8
0
100
AcDbLine
10
-455.557621
20
597.022014
30
0.000000
11
-490.914750
21
565.944048
31
0.000000
0
LINE
100
AcDbEntity
8
0
100
AcDbLine
10
-490.914750
20
565.944048
30
0.000000
11
-524.251283
21
532.707035
31
0.000000
0
LINE
100
AcDbEntity
8
0
100
AcDbLine
10
-524.251283
20
532.707035
30
0.000000
11
-558.402796
21
493.780433
31
0.000000
0
LINE
100
AcDbEntity
8
0
100
AcDbLine
10
-558.402796
20
493.780433
30
0.000000
11
-589.846945
21
452.640234
31
0.000000
0
LINE
100
AcDbEntity
8
0
100
AcDbLine
10
-589.846945
20
452.640234
30
0.000000
11
-618.389416
21
409.436412
31
0.000000
0
LINE
100
AcDbEntity
8
0
100
AcDbLine
10
-618.389416
20
409.436412
30
0.000000
11
-643.988946
21
364.427278
31
0.000000
0
LINE
100
AcDbEntity
8
0
100
AcDbLine
10
-643.988946
20
364.427278
30
0.000000
11
-666.523938
21
317.807874
31
0.000000
0
LINE
100
AcDbEntity
8
0
100
AcDbLine
10
-666.523938
20
317.807874
30
0.000000
11
-684.264563
21
274.203214
31
0.000000
0
LINE
100
AcDbEntity
8
0
100
AcDbLine
10
-684.264563
20
274.203214
30
0.000000
11
-699.367600
21
229.615747
31
0.000000
0
LINE
100
AcDbEntity
8
0
100
AcDbLine
10
-699.367600
20
229.615747
30
0.000000
11
-711.784861
21
184.207713
31
0.000000
0
LINE
100
AcDbEntity
8
0
100
AcDbLine
10
-711.784861
20
184.207713
30
0.000000
11
-721.458784
21
138.137343
31
0.000000
0
LINE
100
AcDbEntity
8
0
100
AcDbLine
10
-721.458784
20
138.137343
30
0.000000
11
-728.419622
21
91.579917
31
0.000000
0
LINE
100
AcDbEntity
8
0
100
AcDbLine
10
-728.419622
20
91.579917
30
0.000000
11
-732.591186
21
44.688184
31
0.000000
0
LINE
100
AcDbEntity
8
0
100
AcDbLine
10
-732.591186
20
44.688184
30
0.000000
11
-733.983040
21
-2.366156
31
0.000000
0
ENDSEC
0
EOF
